disruption-vf.glyphspackage
{
glyphname = period;
layers = (
{
layerId = m01;
shapes = (
{
closed = 1;
nodes = (
(211,0,o),
(221,11,o),
(221,40,cs),
(221,69,o),
(212,80,o),
(186,80,cs),
(161,80,o),
(151,69,o),
(151,40,cs),
(151,12,o),
(161,0,o),
(186,0,cs)
);
}
);
width = 600;
}
);
unicode = 46;
}
{
glyphname = zero;
layers = (
{
layerId = m01;
shapes = (
{
closed = 1;
nodes = (
(442,642,l),
(432,695,o),
(420,810,o),
(296,810,cs),
(216,810,o),
(193,763,o),
(183,744,c),
(232,723,l),
(248,752,o),
(274,760,o),
(299,760,cs),
(327,760,o),
(347,752,o),
(362,731,c),
(349,681,l)
);
},
{
closed = 1;
nodes = (
(202,217,l),
(199,262,o),
(198,336,o),
(198,401,cs),
(198,465,o),
(202,592,o),
(206,637,c),
(155,657,l),
(149,606,o),
(143,474,o),
(143,401,cs),
(143,328,o),
(145,246,o),
(150,195,c)
);
},
{
closed = 1;
nodes = (
(292,255,l),
(373,572,l),
(326,591,l),
(235,232,l)
);
},
{
closed = 1;
nodes = (
(456,319,l),
(456,339,o),
(456,379,o),
(456,401,cs),
(456,422,o),
(456,521,o),
(455,540,c),
(400,562,l),
(401,537,o),
(401,430,o),
(401,401,cs),
(401,371,o),
(401,323,o),
(400,297,c)
);
},
{
closed = 1;
nodes = (
(394,199,l),
(390,36,o),
(324,40,o),
(303,40,cs),
(277,40,o),
(257,47,o),
(242,65,c),
(262,142,l),
(170,101,l),
(186,48,o),
(211,-10,o),
(304,-10,cs),
(416,-10,o),
(436,76,o),
(450,221,c)
);
}
);
width = 600;
},
{
layerId = m002;
shapes = (
{
closed = 1;
nodes = (
(442,642,l),
(432,695,o),
(420,810,o),
(296,810,cs),
(216,810,o),
(193,763,o),
(183,744,c),
(232,723,l),
(248,752,o),
(274,760,o),
(299,760,cs),
(327,760,o),
(347,752,o),
(362,731,c),
(349,681,l)
);
},
{
closed = 1;
nodes = (
(198,309,l),
(198,354,o),
(198,376,o),
(198,401,cs),
(198,465,o),
(199,502,o),
(200,547,c),
(148,567,l),
(144,516,o),
(143,474,o),
(143,401,cs),
(143,374,o),
(143,338,o),
(145,287,c)
);
},
{
closed = 1;
nodes = (
(317,354,l),
(353,490,l),
(306,509,l),
(260,331,l)
);
},
{
closed = 1;
nodes = (
(456,409,l),
(456,429,o),
(456,379,o),
(456,401,cs),
(456,422,o),
(456,431,o),
(455,450,c),
(400,472,l),
(401,447,o),
(401,430,o),
(401,401,cs),
(401,371,o),
(401,413,o),
(400,387,c)
);
},
{
closed = 1;
nodes = (
(394,199,l),
(390,36,o),
(324,40,o),
(303,40,cs),
(277,40,o),
(257,47,o),
(242,65,c),
(262,142,l),
(170,101,l),
(186,48,o),
(211,-10,o),
(304,-10,cs),
(416,-10,o),
(436,76,o),
(450,221,c)
);
}
);
width = 600;
},
{
associatedMasterId = m01;
layerId = "29BAE701-B3C6-48FE-B914-1C075D328838";
name = "2. Apr 24, 11:27";
shapes = (
{
closed = 1;
nodes = (
(424,-10,o),
(456,87,o),
(456,401,c),
(456,722,o),
(416,810,o),
(296,810,cs),
(174,810,o),
(143,714,o),
(143,401,cs),
(143,79,o),
(184,-10,o),
(304,-10,cs)
);
},
{
closed = 1;
nodes = (
(218,40,o),
(198,117,o),
(198,401,cs),
(198,677,o),
(214,760,o),
(299,760,cs),
(384,760,o),
(401,683,o),
(401,401,cs),
(401,123,o),
(388,40,o),
(303,40,cs)
);
},
{
closed = 1;
nodes = (
(196,81,l),
(240,56,l),
(411,721,l),
(367,750,l)
);
}
);
visible = 1;
width = 600;
}
);
unicode = 48;
}
{
glyphname = one;
layers = (
{
layerId = m01;
shapes = (
{
closed = 1;
nodes = (
(319,603,l),
(319,800,l),
(259,800,l),
(105,672,l),
(137,633,l),
(259,735,l),
(259,623,l)
);
},
{
closed = 1;
nodes = (
(319,227,l),
(319,503,l),
(259,523,l),
(259,208,l)
);
},
{
closed = 1;
nodes = (
(259,108,l),
(259,47,l),
(107,47,l),
(107,-3,l),
(470,-3,l),
(470,47,l),
(319,47,l),
(319,127,l)
);
}
);
width = 600;
},
{
associatedMasterId = m01;
layerId = "818A1B8C-0256-4B2E-892D-1FE99EBA39BF";
name = "30. Aug 23, 16:13";
shapes = (
{
closed = 1;
nodes = (
(261,0,l),
(321,0,l),
(321,800,l),
(261,800,l)
);
},
{
closed = 1;
nodes = (
(139,633,l),
(293,762,l),
(261,800,l),
(107,672,l)
);
},
{
closed = 1;
nodes = (
(107,-3,l),
(470,-3,l),
(470,47,l),
(107,47,l)
);
}
);
width = 600;
},
{
layerId = m002;
shapes = (
{
closed = 1;
nodes = (
(319,603,l),
(319,800,l),
(259,800,l),
(161,719,l),
(161,653,l),
(259,735,l),
(259,623,l)
);
},
{
closed = 1;
nodes = (
(319,337,l),
(319,383,l),
(259,403,l),
(259,318,l)
);
},
{
closed = 1;
nodes = (
(259,108,l),
(259,47,l),
(155,47,l),
(107,-3,l),
(470,-3,l),
(412,51,l),
(319,47,l),
(319,127,l)
);
}
);
width = 600;
},
{
associatedMasterId = m002;
layerId = "1F4F7B26-BE04-4818-8F0E-9F6B5AED6C42";
name = "30. Aug 23, 16:13";
shapes = (
{
closed = 1;
nodes = (
(261,0,l),
(321,0,l),
(321,800,l),
(261,800,l)
);
},
{
closed = 1;
nodes = (
(139,633,l),
(293,762,l),
(261,800,l),
(107,672,l)
);
},
{
closed = 1;
nodes = (
(107,-3,l),
(470,-3,l),
(470,47,l),
(107,47,l)
);
}
);
width = 600;
},
{
associatedMasterId = m002;
layerId = "77C9BFAD-099D-4193-AB8A-9AF8D75A10FF";
name = "2. Apr 24, 11:47";
shapes = (
{
closed = 1;
nodes = (
(105,672,l),
(137,633,l),
(259,735,l),
(259,47,l),
(107,47,l),
(107,-3,l),
(470,-3,l),
(470,47,l),
(319,47,l),
(319,800,l),
(259,800,l)
);
}
);
width = 600;
}
);
unicode = 49;
}
{
glyphname = two;
layers = (
{
layerId = m01;
shapes = (
{
closed = 1;
nodes = (
(451,594,l),
(442,714,o),
(408,800,o),
(301,800,cs),
(169,800,o),
(160,671,o),
(141,564,c),
(196,552,l),
(208,633,o),
(209,750,o),
(309,750,cs),
(383,750,o),
(396,684,o),
(397,567,c)
);
},
{
closed = 1;
nodes = (
);
},
{
closed = 1;
nodes = (
(286,169,l),
(363,298,ls),
(401,362,o),
(439,406,o),
(450,494,c),
(388,467,l),
(377,426,o),
(354,387,o),
(331,344,c),
(315,320,o),
(277,256,o),
(241,195,c)
);
},
{
closed = 1;
nodes = (
(189,111,l),
(181,96,o),
(174,84,o),
(145,40,c),
(145,-10,l),
(451,-10,l),
(451,40,l),
(212,40,l),
(220,55,o),
(230,72,o),
(236,85,c)
);
}
);
width = 600;
},
{
associatedMasterId = m01;
layerId = "AC53982A-111F-406F-9C9C-AD13493988B1";
name = "30. Aug 23, 16:21";
shapes = (
{
closed = 1;
nodes = (
(196,560,l),
(208,641,o),
(209,760,o),
(299,760,cs),
(384,760,o),
(397,704,o),
(397,523,c),
(451,523,l),
(451,722,o),
(416,810,o),
(296,810,cs),
(169,810,o),
(164,682,o),
(145,575,c)
);
},
{
closed = 1;
nodes = (
(111,50,l),
(167,31,l),
(451,523,l),
(397,523,l)
);
},
{
closed = 1;
nodes = (
);
},
{
closed = 1;
nodes = (
(111,0,l),
(458,0,l),
(458,50,l),
(111,50,l)
);
}
);
width = 600;
},
{
layerId = m002;
shapes = (
{
closed = 1;
nodes = (
);
},
{
closed = 1;
nodes = (
(450,593,l),
(441,713,o),
(407,799,o),
(300,799,cs),
(218,799,o),
(185,746,o),
(169,698,c),
(222,686,l),
(231,705,o),
(242,749,o),
(308,749,cs),
(382,749,o),
(395,683,o),
(396,566,c)
);
},
{
closed = 1;
nodes = (
(334,248,l),
(362,297,ls),
(373,315,o),
(407,362,o),
(431,419,c),
(352,384,l),
(347,376,o),
(339,359,o),
(330,343,c),
(323,330,o),
(301,296,o),
(289,274,c)
);
},
{
closed = 1;
nodes = (
(188,110,l),
(180,95,o),
(173,83,o),
(144,39,c),
(144,-11,l),
(395,-11,l),
(450,39,l),
(211,39,l),
(219,54,o),
(229,71,o),
(235,84,c)
);
}
);
width = 600;
},
{
associatedMasterId = m002;
layerId = "BB564136-3E74-4CD8-BBD4-F4C12E108619";
name = "30. Aug 23, 16:21";
shapes = (
{
closed = 1;
nodes = (
(196,560,l),
(208,641,o),
(209,760,o),
(299,760,cs),
(384,760,o),
(397,704,o),
(397,523,c),
(451,523,l),
(451,722,o),
(416,810,o),
(296,810,cs),
(169,810,o),
(164,682,o),
(145,575,c)
);
},
{
closed = 1;
nodes = (
(111,50,l),
(167,31,l),
(451,523,l),
(397,523,l)
);
},
{
closed = 1;
nodes = (
);
},
{
closed = 1;
nodes = (
(111,0,l),
(458,0,l),
(458,50,l),
(111,50,l)
);
}
);
width = 600;
},
{
associatedMasterId = m01;
layerId = "DA9F8961-99C5-4EA9-84D1-63F2E189A88E";
name = "2. Apr 24, 11:54";
shapes = (
{
closed = 1;
nodes = (
(196,552,l),
(208,633,o),
(209,750,o),
(309,750,cs),
(384,750,o),
(397,684,o),
(397,543,c),
(398,450,o),
(354,387,o),
(331,344,c),
(300,298,o),
(204,131,o),
(145,40,c),
(145,-10,l),
(451,-10,l),
(451,40,l),
(212,40,l),
(247,105,o),
(329,243,o),
(363,298,c),
(404,361,o),
(456,425,o),
(451,543,c),
(451,702,o),
(416,800,o),
(301,800,cs),
(169,800,o),
(160,671,o),
(141,564,c)
);
},
{
closed = 1;
nodes = (
);
}
);
width = 600;
}
);
unicode = 50;
}
{
glyphname = three;
layers = (
{
layerId = m01;
shapes = (
{
closed = 1;
nodes = (
(433,560,l),
(435,580,o),
(434,587,o),
(434,611,cs),
(434,662,o),
(432,810,o),
(290,810,c),
(203,810,o),
(174,725,o),
(170,668,c),
(223,655,l),
(228,697,o),
(244,760,o),
(294,760,c),
(361,760,o),
(382,700,o),
(382,614,cs),
(382,606,o),
(382,598,o),
(381,583,c)
);
},
{
closed = 1;
nodes = (
(423,382,l),
(407,407,o),
(400,417,o),
(378,429,c),
(397,441,o),
(410,456,o),
(419,477,c),
(363,500,l),
(350,472,o),
(330,456,o),
(304,456,c),
(251,456,l),
(251,406,l),
(304,404,l),
(334,404,o),
(360,385,o),
(369,354,c)
);
},
{
closed = 1;
nodes = (
(391,274,l),
(396,243,o),
(395,218,o),
(395,195,cs),
(395,86,o),
(356,39,o),
(298,39,c),
(244,39,o),
(222,84,o),
(218,118,c),
(161,106,l),
(172,54,o),
(207,-10,o),
(298,-10,c),
(399,-10,o),
(453,56,o),
(453,218,cs),
(453,248,o),
(453,273,o),
(446,302,c)
);
}
);
width = 600;
},
{
layerId = m002;
shapes = (
{
closed = 1;
nodes = (
(433,640,l),
(432,661,o),
(432,672,o),
(427,694,cs),
(423,713,o),
(402,810,o),
(290,810,c),
(203,810,o),
(174,725,o),
(170,668,c),
(223,655,l),
(228,697,o),
(244,760,o),
(294,760,c),
(352,760,o),
(369,710,o),
(373,694,cs),
(375,686,o),
(378,678,o),
(379,663,c)
);
},
{
closed = 1;
nodes = (
(423,382,l),
(407,407,o),
(400,417,o),
(378,429,c),
(397,441,o),
(410,456,o),
(419,477,c),
(363,500,l),
(350,472,o),
(330,456,o),
(304,456,c),
(251,456,l),
(251,406,l),
(304,404,l),
(334,404,o),
(360,385,o),
(369,354,c)
);
},
{
closed = 1;
nodes = (
(396,187,l),
(394,162,o),
(393,131,o),
(384,108,cs),
(375,84,o),
(356,39,o),
(298,39,c),
(244,39,o),
(222,84,o),
(218,118,c),
(161,106,l),
(172,54,o),
(207,-10,o),
(298,-10,c),
(399,-10,o),
(425,57,o),
(436,90,cs),
(452,137,o),
(454,207,o),
(454,217,c)
);
}
);
width = 600;
},
{
associatedMasterId = m01;
layerId = "632CB4C2-29D3-43E3-8889-D076B3CA06FE";
name = "2. Apr 24, 12:42";
shapes = (
{
closed = 1;
nodes = (
(203,810,o),
(174,725,o),
(170,668,c),
(223,655,l),
(228,697,o),
(244,760,o),
(294,760,c),
(361,760,o),
(382,700,o),
(382,614,cs),
(382,515,o),
(354,456,o),
(304,456,c),
(251,456,l),
(251,406,l),
(304,404,l),
(380,404,o),
(395,292,o),
(395,195,cs),
(395,86,o),
(356,39,o),
(298,39,c),
(244,39,o),
(222,84,o),
(218,118,c),
(161,106,l),
(172,54,o),
(207,-10,o),
(298,-10,c),
(399,-10,o),
(453,56,o),
(453,218,cs),
(453,333,o),
(425,404,o),
(378,429,c),
(425,459,o),
(434,502,o),
(434,611,cs),
(434,662,o),
(432,810,o),
(290,810,c)
);
}
);
width = 600;
}
);
unicode = 51;
}
{
glyphname = four;
layers = (
{
layerId = m01;
shapes = (
{
closed = 1;
nodes = (
(234,397,l),
(333,800,l),
(275,800,l),
(177,383,l)
);
},
{
closed = 1;
nodes = (
(419,435,l),
(419,610,l),
(359,610,l),
(359,421,l)
);
},
{
closed = 1;
nodes = (
(419,119,l),
(419,233,l),
(465,233,l),
(465,283,l),
(419,283,l),
(419,345,l),
(359,331,l),
(359,283,l),
(205,283,l),
(209,298,l),
(152,284,l),
(140,233,l),
(359,233,l),
(359,139,l)
);
},
{
closed = 1;
nodes = (
(359,49,l),
(359,0,l),
(419,0,l),
(419,29,l)
);
}
);
width = 600;
},
{
layerId = m002;
shapes = (
{
closed = 1;
nodes = (
(256,487,l),
(333,800,l),
(275,800,l),
(199,473,l)
);
},
{
closed = 1;
nodes = (
(419,525,l),
(419,610,l),
(359,610,l),
(359,511,l)
);
},
{
closed = 1;
nodes = (
(419,213,l),
(419,233,l),
(465,233,l),
(465,283,l),
(419,283,l),
(419,345,l),
(359,331,l),
(359,283,l),
(205,283,l),
(209,298,l),
(152,284,l),
(140,233,l),
(359,233,l),
(359,233,l)
);
},
{
closed = 1;
nodes = (
(359,49,l),
(359,0,l),
(419,0,l),
(419,29,l)
);
}
);
width = 600;
},
{
associatedMasterId = m01;
layerId = "75877780-BB80-4335-8B59-1D1EAFBC4B9D";
name = "2. Apr 24, 12:21";
shapes = (
{
closed = 1;
nodes = (
(359,0,l),
(419,0,l),
(419,610,l),
(359,610,l)
);
},
{
closed = 1;
nodes = (
(140,233,l),
(465,233,l),
(465,283,l),
(153,283,l)
);
},
{
closed = 1;
nodes = (
(193,233,l),
(333,800,l),
(275,800,l),
(140,233,l)
);
}
);
width = 600;
}
);
unicode = 52;
}
{
glyphname = five;
layers = (
{
layerId = m01;
shapes = (
{
closed = 1;
nodes = (
(248,567,l),
(269,750,l),
(450,750,l),
(450,800,l),
(217,800,l),
(194,550,l)
);
},
{
closed = 1;
nodes = (
);
},
{
closed = 1;
nodes = (
(453,256,l),
(453,352,o),
(404,451,o),
(306,451,cs),
(280,451,o),
(256,445,o),
(234,434,c),
(239,477,l),
(185,460,l),
(177,369,l),
(225,343,l),
(242,387,o),
(267,406,o),
(299,406,cs),
(362,406,o),
(392,328,o),
(392,275,c)
);
},
{
closed = 1;
nodes = (
(395,185,l),
(394,126,o),
(373,39,o),
(298,39,cs),
(251,39,o),
(224,79,o),
(220,113,c),
(160,106,l),
(171,54,o),
(207,-10,o),
(298,-10,cs),
(397,-10,o),
(445,70,o),
(451,166,c)
);
}
);
width = 600;
},
{
associatedMasterId = m01;
layerId = "0BF980FF-F452-4738-8BAC-09F8F8D88680";
name = "22. Sep 23, 13:25";
shapes = (
{
closed = 1;
nodes = (
(191,477,l),
(191,429,l),
(299,430,l),
(362,430,o),
(396,354,o),
(396,252,cs),
(396,116,o),
(366,39,o),
(298,39,c),
(241,39,o),
(219,84,o),
(215,118,c),
(170,106,l),
(181,54,o),
(207,-10,o),
(298,-10,c),
(399,-10,o),
(447,86,o),
(447,252,cs),
(447,391,o),
(404,480,o),
(306,480,c)
);
},
{
closed = 1;
nodes = (
(190,430,l),
(250,430,l),
(250,810,l),
(190,810,l)
);
},
{
closed = 1;
nodes = (
(220,760,l),
(432,760,l),
(432,810,l),
(220,810,l)
);
}
);
width = 600;
},
{
associatedMasterId = m01;
layerId = "E62E4670-2DAE-46C4-A158-47CFF091BC6E";
name = "22. Sep 23, 13:51";
shapes = (
{
closed = 1;
nodes = (
(251,451,o),
(200,411,o),
(177,355,c),
(225,343,l),
(242,387,o),
(267,406,o),
(299,406,c),
(362,406,o),
(396,332,o),
(396,216,cs),
(396,117,o),
(373,39,o),
(298,39,c),
(251,39,o),
(224,79,o),
(220,113,c),
(160,106,l),
(171,54,o),
(207,-10,o),
(298,-10,c),
(399,-10,o),
(454,70,o),
(454,216,cs),
(454,355,o),
(404,451,o),
(306,451,c)
);
},
{
closed = 1;
nodes = (
(177,369,l),
(232,379,l),
(275,800,l),
(217,800,l)
);
},
{
closed = 1;
nodes = (
(251,750,l),
(450,750,l),
(450,800,l),
(251,800,l)
);
}
);
width = 600;
},
{
layerId = m002;
shapes = (
{
closed = 1;
nodes = (
(258,657,l),
(269,750,l),
(397,750,l),
(450,800,l),
(217,800,l),
(202,640,l)
);
},
{
closed = 1;
nodes = (
(453,256,l),
(453,352,o),
(404,451,o),
(306,451,cs),
(280,451,o),
(256,445,o),
(234,434,c),
(239,477,l),
(185,460,l),
(177,369,l),
(225,343,l),
(242,387,o),
(267,406,o),
(299,406,cs),
(362,406,o),
(392,328,o),
(392,275,c)
);
},
{
closed = 1;
nodes = (
(376,95,l),
(370,76,o),
(346,39,o),
(298,39,cs),
(251,39,o),
(224,79,o),
(220,113,c),
(160,106,l),
(171,54,o),
(207,-10,o),
(298,-10,cs),
(375,-10,o),
(417,41,o),
(430,77,c)
);
}
);
width = 600;
},
{
associatedMasterId = m002;
layerId = "8ABE70E8-AF4E-40F9-B313-32EFB9C33DFF";
name = "22. Sep 23, 13:25";
shapes = (
{
closed = 1;
nodes = (
(191,477,l),
(191,429,l),
(299,430,l),
(362,430,o),
(396,354,o),
(396,252,cs),
(396,116,o),
(366,39,o),
(298,39,c),
(241,39,o),
(219,84,o),
(215,118,c),
(170,106,l),
(181,54,o),
(207,-10,o),
(298,-10,c),
(399,-10,o),
(447,86,o),
(447,252,cs),
(447,391,o),
(404,480,o),
(306,480,c)
);
},
{
closed = 1;
nodes = (
(190,430,l),
(250,430,l),
(250,810,l),
(190,810,l)
);
},
{
closed = 1;
nodes = (
(220,760,l),
(432,760,l),
(432,810,l),
(220,810,l)
);
}
);
width = 600;
},
{
associatedMasterId = m002;
layerId = "3B50346F-A587-490C-822D-CEF4076952D4";
name = "22. Sep 23, 13:51";
shapes = (
{
closed = 1;
nodes = (
(251,451,o),
(200,411,o),
(177,355,c),
(225,343,l),
(242,387,o),
(267,406,o),
(299,406,c),
(362,406,o),
(396,332,o),
(396,216,cs),
(396,117,o),
(373,39,o),
(298,39,c),
(251,39,o),
(224,79,o),
(220,113,c),
(160,106,l),
(171,54,o),
(207,-10,o),
(298,-10,c),
(399,-10,o),
(454,70,o),
(454,216,cs),
(454,355,o),
(404,451,o),
(306,451,c)
);
},
{
closed = 1;
nodes = (
(177,369,l),
(232,379,l),
(275,800,l),
(217,800,l)
);
},
{
closed = 1;
nodes = (
(251,750,l),
(450,750,l),
(450,800,l),
(251,800,l)
);
}
);
width = 600;
},
{
associatedMasterId = m01;
layerId = "2153B3D6-C9FD-4C3E-ABEC-88E676225326";
name = "2. Apr 24, 13:27";
shapes = (
{
closed = 1;
nodes = (
(251,451,o),
(200,425,o),
(177,369,c),
(225,343,l),
(242,387,o),
(267,406,o),
(299,406,c),
(362,406,o),
(396,332,o),
(396,216,cs),
(396,117,o),
(373,39,o),
(298,39,c),
(251,39,o),
(224,79,o),
(220,113,c),
(160,106,l),
(171,54,o),
(207,-10,o),
(298,-10,c),
(399,-10,o),
(454,70,o),
(454,216,cs),
(454,355,o),
(404,451,o),
(306,451,c)
);
},
{
closed = 1;
nodes = (
(177,369,l),
(227,370,l),
(275,800,l),
(217,800,l)
);
},
{
closed = 1;
nodes = (
(251,750,l),
(450,750,l),
(450,800,l),
(251,800,l)
);
}
);
width = 600;
}
);
unicode = 53;
}
{
glyphname = six;
layers = (
{
layerId = m01;
shapes = (
{
closed = 1;
nodes = (
(450,226,l),
(450,332,o),
(416,452,o),
(297,452,cs),
(251,452,o),
(218,434,o),
(195,406,c),
(196,479,o),
(200,586,o),
(205,623,cs),
(212,672,o),
(212,760,o),
(297,760,cs),
(348,760,o),
(369,725,o),
(378,681,c),
(433,693,l),
(414,759,o),
(377,810,o),
(297,810,cs),
(176,810,o),
(155,708,o),
(145,546,cs),
(144,530,o),
(144,484,o),
(144,403,c),
(226,355,l),
(234,372,o),
(249,402,o),
(297,402,cs),
(382,402,o),
(389,285,o),
(390,260,c)
);
},
{
closed = 1;
nodes = (
(390,173,l),
(390,173,o),
(382,40,o),
(297,40,cs),
(212,40,o),
(204,153,o),
(204,223,cs),
(204,234,o),
(203,255,o),
(205,275,c),
(144,316,l),
(144,213,ls),
(144,102,o),
(173,-10,o),
(295,-10,cs),
(407,-10,o),
(445,94,o),
(450,139,c)
);
}
);
width = 600;
},
{
layerId = m002;
shapes = (
{
closed = 1;
nodes = (
(450,226,l),
(450,332,o),
(416,452,o),
(297,452,cs),
(251,452,o),
(218,434,o),
(195,406,c),
(196,479,o),
(200,586,o),
(205,623,cs),
(212,672,o),
(212,760,o),
(297,760,cs),
(318,760,o),
(339,753,o),
(355,736,c),
(402,758,l),
(383,794,o),
(338,810,o),
(297,810,cs),
(176,810,o),
(155,708,o),
(145,546,cs),
(144,530,o),
(144,484,o),
(144,403,c),
(226,355,l),
(234,372,o),
(249,402,o),
(297,402,cs),
(382,402,o),
(389,285,o),
(390,260,c)
);
},
{
closed = 1;
nodes = (
(363,80,l),
(349,62,o),
(334,40,o),
(297,40,cs),
(226,40,o),
(208,125,o),
(205,175,cs),
(204,186,o),
(205,175,o),
(205,175,c),
(144,216,l),
(144,213,ls),
(144,102,o),
(173,-10,o),
(295,-10,cs),
(366,-10,o),
(392,25,o),
(413,47,c)
);
}
);
width = 600;
},
{
associatedMasterId = m01;
layerId = "75C15E8C-C012-4AC7-AACD-A6F16CE2A0EF";
name = "2. Apr 24, 13:43";
shapes = (
{
closed = 1;
nodes = (
(144,102,o),
(173,-10,o),
(295,-10,cs),
(417,-10,o),
(451,102,o),
(451,217,cs),
(451,333,o),
(416,452,o),
(297,452,cs),
(176,452,o),
(144,329,o),
(144,213,cs)
);
},
{
closed = 1;
nodes = (
(382,402,o),
(391,293,o),
(391,223,c),
(391,153,o),
(382,40,o),
(297,40,cs),
(212,40,o),
(204,153,o),
(204,223,cs),
(204,293,o),
(212,402,o),
(297,402,cs)
);
},
{
closed = 1;
nodes = (
(194,353,l),
(194,409,o),
(198,575,o),
(205,623,cs),
(212,672,o),
(212,760,o),
(297,760,cs),
(348,760,o),
(369,725,o),
(378,681,c),
(433,693,l),
(414,759,o),
(377,810,o),
(297,810,cs),
(176,810,o),
(155,708,o),
(145,546,cs),
(143,518,o),
(144,273,o),
(144,213,c)
);
}
);
width = 600;
}
);
unicode = 54;
}
{
glyphname = seven;
layers = (
{
layerId = m01;
shapes = (
{
closed = 1;
nodes = (
(259,0,l),
(423,589,l),
(353,566,l),
(204,0,l)
);
},
{
closed = 1;
nodes = (
(449,686,l),
(468,753,l),
(469,800,l),
(409,800,l),
(115,802,l),
(102,751,l),
(401,751,l),
(378,663,l)
);
}
);
width = 600;
},
{
layerId = m002;
shapes = (
{
closed = 1;
nodes = (
(259,0,l),
(391,471,l),
(321,448,l),
(204,0,l)
);
},
{
closed = 1;
nodes = (
(449,686,l),
(468,753,l),
(469,800,l),
(409,800,l),
(195,802,l),
(181,750,l),
(401,751,l),
(378,663,l)
);
}
);
width = 600;
},
{
associatedMasterId = m002;
layerId = "89E125F2-A1AA-404B-B06E-E0ADD5A20074";
name = "2. Apr 24, 15:29";
shapes = (
{
closed = 1;
nodes = (
(115,802,l),
(102,751,l),
(401,751,l),
(204,0,l),
(259,0,l),
(468,753,l),
(469,800,l),
(409,800,l)
);
},
{
closed = 0;
nodes = (
(904,-41,l)
);
}
);
width = 600;
}
);
unicode = 55;
}
{
glyphname = eight;
layers = (
{
layerId = m01;
shapes = (
{
closed = 1;
nodes = (
(409,398,l),
(405,406,o),
(393,420,o),
(381,429,c),
(393,438,o),
(400,448,o),
(406,457,c),
(350,476,l),
(339,459,o),
(328,456,o),
(304,456,cs),
(269,456,o),
(245,469,o),
(233,513,c),
(166,535,l),
(172,487,o),
(186,452,o),
(218,428,c),
(195,409,o),
(173,372,o),
(166,343,c),
(231,357,l),
(242,376,o),
(258,406,o),
(301,406,cs),
(327,406,o),
(346,393,o),
(353,383,c)
);
},
{
closed = 1;
nodes = (
(433,538,l),
(447,701,o),
(418,809,o),
(300,809,cs),
(176,809,o),
(163,669,o),
(164,625,c),
(224,606,l),
(225,714,o),
(247,759,o),
(302,759,cs),
(361,759,o),
(379,719,o),
(375,557,c)
);
},
{
closed = 1;
nodes = (
(387,303,l),
(394,261,o),
(394,247,o),
(394,209,cs),
(394,139,o),
(386,40,o),
(301,40,cs),
(216,40,o),
(207,139,o),
(207,209,cs),
(207,226,o),
(207,251,o),
(209,264,c),
(148,249,l),
(147,241,o),
(147,225,o),
(147,210,cs),
(147,99,o),
(182,-10,o),
(301,-10,cs),
(422,-10,o),
(454,103,o),
(454,208,cs),
(454,256,o),
(452,271,o),
(442,316,c)
);
}
);
width = 600;
},
{
associatedMasterId = m01;
layerId = "980CD1D9-098E-460E-A8AA-AE18FA47B49A";
name = "30. Aug 23, 16:56";
shapes = (
{
closed = 1;
nodes = (
(420,-10,o),
(454,119,o),
(454,223,cs),
(454,334,o),
(420,462,o),
(300,462,cs),
(178,462,o),
(147,326,o),
(147,223,cs),
(147,111,o),
(180,-10,o),
(300,-10,cs)
);
},
{
closed = 1;
nodes = (
(215,40,o),
(207,149,o),
(207,223,cs),
(207,289,o),
(215,412,o),
(300,412,cs),
(385,412,o),
(394,295,o),
(394,223,cs),
(394,155,o),
(385,40,o),
(300,40,cs)
);
},
{
closed = 1;
nodes = (
(420,412,o),
(434,509,o),
(434,613,cs),
(434,694,o),
(420,809,o),
(300,809,cs),
(178,809,o),
(167,686,o),
(167,613,cs),
(167,501,o),
(180,412,o),
(300,412,cs)
);
},
{
closed = 1;
nodes = (
(215,462,o),
(227,539,o),
(227,613,cs),
(227,649,o),
(215,759,o),
(300,759,cs),
(385,759,o),
(374,655,o),
(374,613,cs),
(374,545,o),
(385,462,o),
(300,462,cs)
);
}
);
width = 600;
},
{
layerId = m002;
shapes = (
{
closed = 1;
nodes = (
(409,398,l),
(405,406,o),
(393,420,o),
(381,429,c),
(393,438,o),
(400,448,o),
(406,457,c),
(350,476,l),
(339,459,o),
(328,456,o),
(304,456,cs),
(269,456,o),
(245,469,o),
(233,513,c),
(166,535,l),
(172,487,o),
(186,452,o),
(218,428,c),
(195,409,o),
(173,372,o),
(166,343,c),
(231,357,l),
(242,376,o),
(258,406,o),
(301,406,cs),
(327,406,o),
(346,393,o),
(353,383,c)
);
},
{
closed = 1;
nodes = (
);
},
{
closed = 1;
nodes = (
(436,648,l),
(430,741,o),
(388,809,o),
(300,809,cs),
(216,809,o),
(193,752,o),
(182,730,c),
(236,711,l),
(249,750,o),
(277,759,o),
(302,759,cs),
(352,759,o),
(370,719,o),
(375,667,c)
);
},
{
closed = 1;
nodes = (
(394,213,l),
(394,213,o),
(394,213,o),
(394,213,cs),
(394,143,o),
(386,40,o),
(301,40,cs),
(216,40,o),
(209,144,o),
(208,174,cs),
(208,174,o),
(208,174,o),
(208,174,c),
(150,159,l),
(150,159,o),
(150,159,o),
(150,159,cs),
(153,104,o),
(182,-10,o),
(301,-10,cs),
(422,-10,o),
(454,103,o),
(454,208,cs),
(454,221,o),
(454,227,o),
(454,227,c)
);
}
);
width = 600;
},
{
associatedMasterId = m002;
layerId = "A1C6684F-1F3B-428F-8A21-53270FB92F94";
name = "30. Aug 23, 16:56";
shapes = (
{
closed = 1;
nodes = (
(420,-10,o),
(454,119,o),
(454,223,cs),
(454,334,o),
(420,462,o),
(300,462,cs),
(178,462,o),
(147,326,o),
(147,223,cs),
(147,111,o),
(180,-10,o),
(300,-10,cs)
);
},
{
closed = 1;
nodes = (
(215,40,o),
(207,149,o),
(207,223,cs),
(207,289,o),
(215,412,o),
(300,412,cs),
(385,412,o),
(394,295,o),
(394,223,cs),
(394,155,o),
(385,40,o),
(300,40,cs)
);
},
{
closed = 1;
nodes = (
(420,412,o),
(434,509,o),
(434,613,cs),
(434,694,o),
(420,809,o),
(300,809,cs),
(178,809,o),
(167,686,o),
(167,613,cs),
(167,501,o),
(180,412,o),
(300,412,cs)
);
},
{
closed = 1;
nodes = (
(215,462,o),
(227,539,o),
(227,613,cs),
(227,649,o),
(215,759,o),
(300,759,cs),
(385,759,o),
(374,655,o),
(374,613,cs),
(374,545,o),
(385,462,o),
(300,462,cs)
);
}
);
width = 600;
},
{
associatedMasterId = m002;
layerId = "71D28F42-2199-4D41-AB88-655B45F79074";
name = "2. Apr 24, 15:41";
shapes = (
{
closed = 1;
nodes = (
(422,-10,o),
(454,103,o),
(454,208,cs),
(454,287,o),
(436,386,o),
(381,429,c),
(427,464,o),
(438,540,o),
(438,606,cs),
(438,694,o),
(418,809,o),
(300,809,cs),
(176,809,o),
(163,680,o),
(163,605,cs),
(163,539,o),
(173,462,o),
(218,428,c),
(163,383,o),
(147,285,o),
(147,210,cs),
(147,99,o),
(182,-10,o),
(301,-10,cs)
);
},
{
closed = 1;
nodes = (
(216,40,o),
(207,139,o),
(207,209,cs),
(207,279,o),
(216,406,o),
(301,406,cs),
(386,406,o),
(394,279,o),
(394,209,cs),
(394,139,o),
(386,40,o),
(301,40,cs)
);
},
{
closed = 1;
nodes = (
(249,456,o),
(223,511,o),
(223,616,cs),
(223,716,o),
(247,759,o),
(302,759,cs),
(361,759,o),
(378,708,o),
(378,607,cs),
(378,533,o),
(369,456,o),
(304,456,cs)
);
}
);
visible = 1;
width = 600;
}
);
unicode = 56;
}
{
glyphname = nine;
layers = (
{
layerId = m01;
shapes = (
{
closed = 1;
nodes = (
(454,501,l),
(454,589,ls),
(454,700,o),
(425,810,o),
(303,810,cs),
(181,810,o),
(149,690,o),
(149,631,c),
(207,606,l),
(207,640,o),
(216,760,o),
(301,760,cs),
(386,760,o),
(397,649,o),
(394,579,cs),
(392,528,l)
);
},
{
closed = 1;
nodes = (
(372,446,l),
(359,419,o),
(336,400,o),
(301,400,cs),
(239,400,o),
(218,457,o),
(210,515,c),
(149,541,l),
(157,441,o),
(197,350,o),
(301,350,cs),
(347,350,o),
(380,368,o),
(403,396,c),
(402,323,o),
(398,216,o),
(393,179,cs),
(386,128,o),
(386,40,o),
(301,40,cs),
(250,40,o),
(229,75,o),
(220,119,c),
(165,107,l),
(184,41,o),
(221,-10,o),
(301,-10,cs),
(422,-10,o),
(443,92,o),
(453,256,cs),
(454,270,o),
(454,339,o),
(454,411,c)
);
}
);
width = 600;
},
{
layerId = m002;
shapes = (
{
closed = 1;
nodes = (
(454,591,l),
(453,620,ls),
(449,740,o),
(395,810,o),
(303,810,cs),
(211,810,o),
(175,740,o),
(165,711,c),
(219,687,l),
(227,719,o),
(256,760,o),
(301,760,cs),
(346,760,o),
(383,725,o),
(390,658,cs),
(394,618,l)
);
},
{
closed = 1;
nodes = (
(372,446,l),
(359,419,o),
(336,400,o),
(301,400,cs),
(239,400,o),
(218,457,o),
(210,515,c),
(149,541,l),
(157,441,o),
(197,350,o),
(301,350,cs),
(347,350,o),
(380,368,o),
(403,396,c),
(402,323,o),
(398,216,o),
(393,179,cs),
(386,128,o),
(386,40,o),
(301,40,cs),
(280,40,o),
(257,49,o),
(248,59,c),
(194,43,l),
(213,17,o),
(241,-10,o),
(301,-10,cs),
(422,-10,o),
(443,92,o),
(453,256,cs),
(454,270,o),
(454,339,o),
(454,411,c)
);
}
);
width = 600;
},
{
associatedMasterId = m002;
layerId = "E30B95B3-F68F-4617-83D7-7BB95B25EAC4";
name = "2. Apr 24, 15:32";
shapes = (
{
closed = 1;
nodes = (
(454,700,o),
(425,810,o),
(303,810,cs),
(181,810,o),
(147,700,o),
(147,585,cs),
(147,469,o),
(182,350,o),
(301,350,cs),
(422,350,o),
(454,473,o),
(454,589,cs)
);
},
{
closed = 1;
nodes = (
(216,400,o),
(207,509,o),
(207,579,c),
(207,649,o),
(216,760,o),
(301,760,cs),
(386,760,o),
(394,649,o),
(394,579,cs),
(394,509,o),
(386,400,o),
(301,400,cs)
);
},
{
closed = 1;
nodes = (
(404,449,l),
(404,393,o),
(400,227,o),
(393,179,cs),
(386,128,o),
(386,40,o),
(301,40,cs),
(250,40,o),
(229,75,o),
(220,119,c),
(165,107,l),
(184,41,o),
(221,-10,o),
(301,-10,cs),
(422,-10,o),
(443,92,o),
(453,256,cs),
(455,284,o),
(454,529,o),
(454,589,c)
);
}
);
width = 600;
}
);
unicode = 57;
}
{
glyphname = A;
layers = (
{
layerId = m01;
shapes = (
{
closed = 1;
nodes = (
(373,613,l),
(325,800,l),
(255,800,l),
(196,545,l),
(261,571,l),
(291,718,l),
(321,592,l)
);
},
{
closed = 1;
nodes = (
(496,123,l),
(397,514,l),
(345,493,l),
(384,327,l),
(208,327,l),
(234,447,l),
(169,421,l),
(134,273,l),
(192,250,l),
(198,277,l),
(395,277,l),
(425,152,l)
);
},
{
closed = 1;
nodes = (
(115,187,l),
(75,10,l),
(139,0,l),
(173,164,l)
);
},
{
closed = 1;
nodes = (
(451,43,l),
(461,0,l),
(525,10,l),
(525,10,l)
);
}
);
width = 600;
},
{
layerId = m002;
shapes = (
{
closed = 1;
nodes = (
(373,613,l),
(325,800,l),
(255,800,l),
(196,545,l),
(261,571,l),
(291,718,l),
(321,592,l)
);
},
{
closed = 1;
nodes = (
(496,123,l),
(417,434,l),
(365,413,l),
(384,327,l),
(208,327,l),
(214,357,l),
(149,331,l),
(134,273,l),
(192,250,l),
(198,277,l),
(395,277,l),
(425,152,l)
);
},
{
closed = 1;
nodes = (
(89,67,l),
(75,10,l),
(139,0,l),
(147,44,l)
);
},
{
closed = 1;
nodes = (
(461,0,l),
(461,0,l),
(525,10,l),
(525,10,l)
);
}
);
width = 600;
},
{
associatedMasterId = m01;
layerId = "E0783815-380C-4E8F-8222-D5F385B0B6E9";
name = "12. Mar 24, 12:09";
shapes = (
{
closed = 1;
nodes = (
(384,327,l),
(208,327,l),
(291,718,l)
);
},
{
closed = 1;
nodes = (
(461,0,l),
(525,10,l),
(325,800,l),
(255,800,l),
(75,10,l),
(139,0,l),
(198,277,l),
(395,277,l)
);
}
);
width = 600;
}
);
unicode = 65;
}
{
glyphname = B;
layers = (
{
layerId = m01;
shapes = (
{
closed = 1;
nodes = (
(170,800,l),
(170,50,l),
(110,50,l),
(110,0,l),
(295,0,ls),
(426,0,o),
(490,62,o),
(490,222,cs),
(490,373,o),
(417,418,o),
(370,434,c),
(417,464,o),
(448,518,o),
(448,608,cs),
(448,698,o),
(402,800,o),
(260,800,cs)
);
},
{
closed = 1;
nodes = (
(230,750,l),
(260,750,ls),
(347,750,o),
(388,707,o),
(388,607,cs),
(388,527,o),
(367,460,o),
(250,460,cs),
(230,460,l)
);
},
{
closed = 1;
nodes = (
(230,50,l),
(230,400,l),
(250,400,ls),
(368,400,o),
(430,352,o),
(430,222,cs),
(430,92,o),
(390,50,o),
(293,50,cs)
);
},
{
closed = 1;
nodes = (
(110,750,l),
(186,750,l),
(186,800,l),
(110,800,l)
);
}
);
width = 600;
},
{
associatedMasterId = m01;
layerId = "5A63293C-0CC5-4D07-B318-6B35A0CAB80B";
name = "8. Aug 23, 19:14";
shapes = (
{
closed = 1;
nodes = (
(140,800,l),
(140,0,l),
(200,0,l),
(200,380,l),
(270,380,ls),
(390,380,o),
(495,421,o),
(495,581,cs),
(495,741,o),
(400,800,o),
(280,800,cs)
);
},
{
closed = 1;
nodes = (
(200,750,l),
(280,750,ls),
(385,750,o),
(435,690,o),
(435,580,cs),
(435,470,o),
(375,430,o),
(270,430,cs),
(200,430,l)
);
},
{
closed = 1;
nodes = (
(313,0,l),
(433,0,o),
(548,53,o),
(548,213,cs),
(548,373,o),
(433,432,o),
(313,432,c),
(313,382,l),
(418,382,o),
(488,322,o),
(488,212,cs),
(488,102,o),
(418,50,o),
(313,50,c)
);
},
{
closed = 1;
nodes = (
(74,0,l),
(315,0,l),
(315,50,l),
(74,50,l)
);
}
);
width = 600;
}
);
unicode = 66;
}
{
glyphname = C;
layers = (
{
layerId = m01;
shapes = (
{
closed = 1;
nodes = (
(201,449,l),
(201,451,o),
(201,447,o),
(201,449,cs),
(204,630,o),
(222,760,o),
(307,760,cs),
(371,760,o),
(391,721,o),
(404,624,c),
(459,636,l),
(438,774,o),
(388,810,o),
(307,810,cs),
(187,810,o),
(146,709,o),
(143,489,cs),
(143,487,o),
(143,491,o),
(143,489,c)
);
},
{
closed = 1;
nodes = (
(143,306,l),
(152,96,o),
(188,-10,o),
(307,-10,cs),
(388,-10,o),
(442,25,o),
(460,187,c),
(405,199,l),
(392,78,o),
(366,40,o),
(307,40,cs),
(223,40,o),
(210,129,o),
(202,259,c)
);
}
);
width = 600;
},
{
layerId = m002;
shapes = (
{
closed = 1;
nodes = (
(204,519,l),
(204,521,o),
(204,517,o),
(204,519,cs),
(207,610,o),
(222,760,o),
(307,760,cs),
(361,760,o),
(380,729,o),
(393,682,c),
(448,694,l),
(427,782,o),
(378,810,o),
(307,810,cs),
(187,810,o),
(149,689,o),
(146,559,cs),
(146,557,o),
(146,561,o),
(146,559,c)
);
},
{
closed = 1;
nodes = (
(146,266,l),
(154,107,o),
(187,-10,o),
(307,-10,cs),
(384,-10,o),
(427,29,o),
(445,101,c),
(390,113,l),
(377,77,o),
(362,40,o),
(307,40,cs),
(223,40,o),
(213,129,o),
(205,219,c)
);
}
);
width = 600;
},
{
associatedMasterId = m002;
layerId = "3A39F4BB-D4B1-46E9-AFE4-6983E4ED6C1D";
name = "9. Mar 24, 17:46";
shapes = (
{
closed = 1;
nodes = (
(405,199,l),
(392,78,o),
(366,40,o),
(307,40,cs),
(222,40,o),
(201,122,o),
(201,406,cs),
(201,682,o),
(222,760,o),
(307,760,cs),
(371,760,o),
(391,721,o),
(404,624,c),
(459,636,l),
(438,774,o),
(388,810,o),
(307,810,cs),
(187,810,o),
(141,719,o),
(141,406,cs),
(141,84,o),
(187,-10,o),
(307,-10,cs),
(388,-10,o),
(442,25,o),
(460,187,c)
);
}
);
width = 600;
}
);
unicode = 67;
}
{
glyphname = D;
layers = (
{
layerId = m01;
shapes = (
{
closed = 1;
nodes = (
(156,0,l),
(216,0,l),
(216,800,l),
(156,800,l)
);
},
{
closed = 1;
nodes = (
(116,0,l),
(310,0,l),
(431,0,o),
(471,101,o),
(471,405,cs),
(471,716,o),
(429,800,o),
(302,800,cs),
(241,800,o),
(116,800,o),
(116,800,c),
(116,750,l),
(305,750,l),
(388,750,o),
(416,679,o),
(416,407,cs),
(416,139,o),
(389,50,o),
(309,50,c),
(116,50,l)
);
}
);
width = 600;
}
);
unicode = 68;
}
{
glyphname = E;
layers = (
{
layerId = m01;
shapes = (
{
closed = 1;
nodes = (
(205,610,l),
(205,750,l),
(445,750,l),
(445,800,l),
(145,800,l),
(145,559,l)
);
},
{
closed = 1;
nodes = (
(145,159,l),
(145,0,l),
(175,0,l),
(175,0,l),
(455,-1,l),
(455,49,l),
(205,49,l),
(205,115,l)
);
},
{
closed = 1;
nodes = (
(145,431,l),
(145,297,l),
(205,249,l),
(205,389,l),
(405,389,l),
(405,439,l),
(205,439,l),
(205,479,l)
);
}
);
width = 600;
},
{
layerId = m002;
shapes = (
{
closed = 1;
nodes = (
(205,720,l),
(205,750,l),
(400,750,l),
(440,800,l),
(145,800,l),
(145,669,l)
);
},
{
closed = 1;
nodes = (
(145,93,l),
(145,0,l),
(175,0,l),
(175,0,l),
(412,1,l),
(455,49,l),
(205,49,l),
(205,49,l)
);
},
{
closed = 1;
nodes = (
(145,431,l),
(145,387,l),
(205,339,l),
(205,389,l),
(355,389,l),
(300,439,l),
(205,439,l),
(205,479,l)
);
}
);
width = 600;
},
{
associatedMasterId = m002;
layerId = "55246897-B02E-42A7-A350-F884E3938EDC";
name = "9. Mar 24, 17:12";
shapes = (
{
closed = 1;
nodes = (
(145,0,l),
(175,0,l),
(175,-1,l),
(455,-1,l),
(455,49,l),
(205,49,l),
(205,389,l),
(405,389,l),
(405,439,l),
(205,439,l),
(205,750,l),
(445,750,l),
(445,800,l),
(145,800,l)
);
}
);
width = 600;
}
);
unicode = 69;
}
{
glyphname = F;
layers = (
{
layerId = m01;
shapes = (
{
closed = 1;
nodes = (
(140,0,l),
(200,0,l),
(200,800,l),
(140,800,l)
);
},
{
closed = 1;
nodes = (
(140,750,l),
(460,750,l),
(460,800,l),
(140,800,l)
);
},
{
closed = 1;
nodes = (
(170,459,l),
(410,459,l),
(410,509,l),
(170,509,l)
);
}
);
width = 600;
}
);
unicode = 70;
}
{
glyphname = G;
layers = (
{
layerId = m01;
shapes = (
{
closed = 1;
nodes = (
(448,336,l),
(448,386,l),
(306,386,l),
(306,336,l),
(391,336,l),
(389,133,l),
(376,79,o),
(359,40,o),
(300,40,cs),
(215,40,o),
(194,132,o),
(194,416,cs),
(194,682,o),
(215,760,o),
(300,760,cs),
(364,760,o),
(384,721,o),
(397,624,c),
(452,636,l),
(431,774,o),
(381,810,o),
(300,810,cs),
(180,810,o),
(134,719,o),
(134,416,cs),
(134,94,o),
(180,-10,o),
(300,-10,cs),
(381,-10,o),
(430,38,o),
(446,133,c)
);
}
);
width = 600;
},
{
associatedMasterId = m01;
layerId = "2DC698CC-5C4C-4B81-8792-CD00E12F350E";
name = "8. Aug 23, 19:41";
shapes = (
{
closed = 1;
nodes = (
(397,210,l),
(384,89,o),
(359,50,o),
(300,50,cs),
(215,50,o),
(194,132,o),
(194,406,cs),
(194,672,o),
(215,750,o),
(300,750,cs),
(364,750,o),
(384,711,o),
(397,614,c),
(452,626,l),
(431,764,o),
(381,800,o),
(300,800,cs),
(180,800,o),
(134,709,o),
(134,406,cs),
(134,94,o),
(180,0,o),
(300,0,cs),
(381,0,o),
(441,48,o),
(457,210,c)
);
},
{
closed = 1;
nodes = (
(397,210,l),
(457,210,l),
(457,356,l),
(397,356,l)
);
},
{
closed = 1;
nodes = (
(457,306,l),
(457,356,l),
(315,356,l),
(315,306,l)
);
}
);
width = 600;
},
{
associatedMasterId = m01;
layerId = "3A6DA8C9-CA69-4D6E-8E6E-535173E0960F";
name = "30. Aug 23, 15:59";
shapes = (
{
closed = 1;
nodes = (
(389,133,l),
(376,79,o),
(359,40,o),
(300,40,cs),
(215,40,o),
(194,132,o),
(194,416,cs),
(194,682,o),
(215,760,o),
(300,760,cs),
(364,760,o),
(384,721,o),
(397,624,c),
(452,636,l),
(431,774,o),
(381,810,o),
(300,810,cs),
(180,810,o),
(134,719,o),
(134,416,cs),
(134,94,o),
(180,-10,o),
(300,-10,cs),
(381,-10,o),
(430,38,o),
(446,133,c)
);
},
{
closed = 1;
nodes = (
(389,133,l),
(446,133,l),
(448,386,l),
(392,386,l)
);
},
{
closed = 1;
nodes = (
(448,336,l),
(448,386,l),
(306,386,l),
(306,336,l)
);
}
);
width = 600;
}
);
unicode = 71;
}
{
glyphname = H;
layers = (
{
layerId = m01;
shapes = (
{
closed = 1;
nodes = (
(144,0,l),
(204,0,l),
(204,800,l),
(144,800,l)
);
},
{
closed = 1;
nodes = (
(396,0,l),
(456,0,l),
(456,800,l),
(396,800,l)
);
},
{
closed = 1;
nodes = (
(187,417,l),
(417,417,l),
(417,467,l),
(187,467,l)
);
}
);
width = 600;
}
);
unicode = 72;
}
{
glyphname = I;
layers = (
{
layerId = m01;
shapes = (
{
closed = 1;
nodes = (
(261,0,l),
(321,0,l),
(321,800,l),
(261,800,l)
);
},
{
closed = 1;
nodes = (
(150,757,l),
(450,757,l),
(450,807,l),
(150,807,l)
);
},
{
closed = 1;
nodes = (
(150,-3,l),
(450,-3,l),
(450,47,l),
(150,47,l)
);
}
);
width = 600;
}
);
unicode = 73;
}
{
glyphname = J;
layers = (
{
layerId = m01;
shapes = (
{
closed = 1;
nodes = (
(361,711,l),
(361,757,l),
(470,757,l),
(470,807,l),
(220,807,l),
(220,757,l),
(301,757,l),
(301,696,l)
);
},
{
closed = 1;
nodes = (
(353,204,l),
(361,264,o),
(361,322,o),
(361,370,cs),
(361,591,l),
(301,576,l),
(301,370,ls),
(301,330,o),
(302,276,o),
(296,223,c)
);
},
{
closed = 1;
nodes = (
(278,113,l),
(262,63,o),
(235,40,o),
(194,40,cs),
(109,40,o),
(95,138,o),
(90,259,c),
(30,247,l),
(40,85,o),
(74,-10,o),
(194,-10,cs),
(260,-10,o),
(305,18,o),
(331,94,c)
);
}
);
width = 600;
},
{
layerId = m002;
shapes = (
{
closed = 1;
nodes = (
(361,711,l),
(361,757,l),
(420,757,l),
(470,807,l),
(270,807,l),
(220,757,l),
(301,757,l),
(301,696,l)
);
},
{
closed = 1;
nodes = (
(360,273,l),
(361,302,o),
(361,322,o),
(361,370,cs),
(361,471,l),
(301,456,l),
(301,370,ls),
(301,330,o),
(300,316,o),
(299,292,c)
);
},
{
closed = 1;
nodes = (
(258,72,l),
(242,55,o),
(235,40,o),
(194,40,cs),
(135,40,o),
(112,91,o),
(107,122,c),
(50,110,l),
(66,45,o),
(106,-10,o),
(194,-10,cs),
(260,-10,o),
(287,15,o),
(311,49,c)
);
}
);
width = 600;
}
);
unicode = 74;
}
{
glyphname = K;
layers = (
{
layerId = m01;
shapes = (
{
closed = 1;
nodes = (
(200,730,l),
(200,800,l),
(140,800,l),
(140,679,l)
);
},
{
closed = 1;
nodes = (
(231,467,l),
(200,467,l),
(200,629,l),
(140,575,l),
(140,467,l),
(200,417,l),
(234,417,l),
(360,151,l),
(388,231,l),
(279,444,l),
(468,761,l),
(389,749,l)
);
},
{
closed = 1;
nodes = (
(140,350,l),
(140,0,l),
(200,0,l),
(200,300,l)
);
},
{
closed = 1;
nodes = (
(406,58,l),
(433,0,l),
(493,28,l),
(438,138,l)
);
}
);
width = 600;
},
{
associatedMasterId = m01;
layerId = "A5312C8F-5F73-4B19-BD93-633223DBE74D";
name = "8. Aug 23, 19:25";
shapes = (
{
closed = 1;
nodes = (
(140,0,l),
(200,0,l),
(200,800,l),
(140,800,l)
);
},
{
closed = 1;
nodes = (
(277,423,l),
(473,772,l),
(413,800,l),
(233,452,l)
);
},
{
closed = 1;
nodes = (
(140,417,l),
(270,417,l),
(270,467,l),
(140,467,l)
);
},
{
closed = 1;
nodes = (
(443,0,l),
(503,28,l),
(277,468,l),
(233,439,l)
);
}
);
width = 600;
},
{
associatedMasterId = m01;
layerId = "2F2ED2D2-6400-4F4C-BA01-6F9518759A75";
name = "8. Aug 23, 19:26";
shapes = (
{
closed = 1;
nodes = (
(140,0,l),
(200,0,l),
(200,800,l),
(140,800,l)
);
},
{
closed = 1;
nodes = (
(267,423,l),
(468,762,l),
(413,790,l),
(223,452,l)
);
},
{
closed = 1;
nodes = (
(140,417,l),
(260,417,l),
(260,467,l),
(140,467,l)
);
},
{
closed = 1;
nodes = (
(433,0,l),
(493,28,l),
(267,468,l),
(223,439,l)
);
}
);
width = 600;
},
{
layerId = m002;
shapes = (
{
closed = 1;
nodes = (
(200,800,l),
(200,800,l),
(140,800,l),
(140,749,l)
);
},
{
closed = 1;
nodes = (
(231,467,l),
(200,467,l),
(200,579,l),
(140,525,l),
(140,467,l),
(200,417,l),
(234,417,l),
(330,213,l),
(358,293,l),
(279,444,l),
(418,677,l),
(341,664,l)
);
},
{
closed = 1;
nodes = (
(140,230,l),
(140,0,l),
(200,0,l),
(200,180,l)
);
},
{
closed = 1;
nodes = (
(433,0,l),
(433,0,l),
(493,28,l),
(465,80,l)
);
}
);
width = 600;
},
{
associatedMasterId = m002;
layerId = "8FF2270A-4E06-476E-B1DA-CFA1DE358EBB";
name = "8. Aug 23, 19:25";
shapes = (
{
closed = 1;
nodes = (
(140,0,l),
(200,0,l),
(200,800,l),
(140,800,l)
);
},
{
closed = 1;
nodes = (
(277,423,l),
(473,772,l),
(413,800,l),
(233,452,l)
);
},
{
closed = 1;
nodes = (
(140,417,l),
(270,417,l),
(270,467,l),
(140,467,l)
);
},
{
closed = 1;
nodes = (
(443,0,l),
(503,28,l),
(277,468,l),
(233,439,l)
);
}
);
width = 600;
},
{
associatedMasterId = m002;
layerId = "E156FEF5-37CF-40B3-A037-81BF4F666B97";
name = "8. Aug 23, 19:26";
shapes = (
{
closed = 1;
nodes = (
(140,0,l),
(200,0,l),
(200,800,l),
(140,800,l)
);
},
{
closed = 1;
nodes = (
(267,423,l),
(468,762,l),
(413,790,l),
(223,452,l)
);
},
{
closed = 1;
nodes = (
(140,417,l),
(260,417,l),
(260,467,l),
(140,467,l)
);
},
{
closed = 1;
nodes = (
(433,0,l),
(493,28,l),
(267,468,l),
(223,439,l)
);
}
);
width = 600;
},
{
associatedMasterId = m01;
layerId = "DA655FCA-7F0F-46A0-93D3-BCF5B0E3BE3D";
name = "9. Mar 24, 17:51";
shapes = (
{
closed = 1;
nodes = (
(140,0,l),
(200,0,l),
(200,417,l),
(234,417,l),
(433,0,l),
(493,28,l),
(279,444,l),
(468,762,l),
(413,790,l),
(231,467,l),
(200,467,l),
(200,800,l),
(140,800,l)
);
}
);
visible = 1;
width = 600;
}
);
unicode = 75;
}
{
glyphname = L;
layers = (
{
layerId = m01;
shapes = (
{
closed = 1;
nodes = (
(140,-3,l),
(460,-3,l),
(460,47,l),
(200,47,l),
(200,800,l),
(140,800,l)
);
}
);
width = 600;
},
{
associatedMasterId = m01;
layerId = "8336CE71-5F6C-4447-BD78-46428336A016";
name = "8. Aug 23, 19:52";
shapes = (
{
closed = 1;
nodes = (
(140,0,l),
(200,0,l),
(200,800,l),
(140,800,l)
);
},
{
closed = 1;
nodes = (
(140,-3,l),
(460,-3,l),
(460,47,l),
(140,47,l)
);
}
);
width = 600;
}
);
unicode = 76;
}
{
glyphname = M;
layers = (
{
layerId = m01;
shapes = (
{
closed = 1;
nodes = (
(122,0,l),
(182,0,l),
(182,678,l),
(303,289,l),
(306,289,l),
(418,678,l),
(418,0,l),
(478,0,l),
(478,800,l),
(408,800,l),
(306,450,l),
(303,450,l),
(192,800,l),
(122,800,l)
);
}
);
width = 600;
}
);
unicode = 77;
}
{
color = 1;
glyphname = N;
layers = (
{
layerId = m01;
shapes = (
{
closed = 1;
nodes = (
(209,779,l),
(202,800,l),
(142,800,l),
(142,800,l)
);
},
{
closed = 1;
nodes = (
(458,723,l),
(458,800,l),
(398,800,l),
(398,738,l)
);
},
{
closed = 1;
nodes = (
(202,646,l),
(348,165,l),
(393,174,l),
(242,670,l),
(192,682,l)
);
},
{
closed = 1;
nodes = (
(202,680,l),
(142,693,l),
(142,132,l),
(202,143,l),
(202,646,l)
);
},
{
closed = 1;
nodes = (
(142,27,l),
(142,0,l),
(202,0,l),
(202,38,l)
);
},
{
closed = 1;
nodes = (
(377,67,l),
(398,0,l),
(458,0,l),
(458,84,l)
);
},
{
closed = 1;
nodes = (
(458,187,l),
(458,615,l),
(398,630,l),
(398,177,l)
);
}
);
width = 600;
},
{
layerId = m002;
shapes = (
{
closed = 1;
nodes = (
(202,800,l),
(202,800,l),
(142,800,l),
(142,800,l)
);
},
{
closed = 1;
nodes = (
(458,723,l),
(458,800,l),
(398,800,l),
(398,738,l)
);
},
{
closed = 1;
nodes = (
(218,593,l),
(317,267,l),
(363,273,l),
(269,581,l),
(218,593,l)
);
},
{
closed = 1;
nodes = (
(202,600,l),
(142,612,l),
(142,232,l),
(202,243,l),
(202,600,l)
);
},
{
closed = 1;
nodes = (
(142,27,l),
(142,0,l),
(202,0,l),
(202,38,l)
);
},
{
closed = 1;
nodes = (
(377,67,l),
(398,0,l),
(458,0,l),
(458,84,l)
);
},
{
closed = 1;
nodes = (
(458,286,l),
(458,536,l),
(399,551,l),
(399,277,l)
);
}
);
width = 600;
},
{
associatedMasterId = m01;
layerId = "A7846E36-2CEA-4FD1-AD3B-8F7EC1B048C7";
name = "12. Mar 24, 11:22";
shapes = (
{
closed = 1;
nodes = (
(142,0,l),
(202,0,l),
(202,800,l),
(142,800,l)
);
},
{
closed = 1;
nodes = (
(398,0,l),
(458,0,l),
(458,800,l),
(398,800,l)
);
},
{
closed = 1;
nodes = (
(202,800,l),
(180,719,l),
(398,0,l),
(437,30,l)
);
}
);
width = 600;
},
{
associatedMasterId = m01;
layerId = "626235CE-E823-453A-9FEE-D146C8E3AA55";
name = "12. Mar 24, 11:22";
shapes = (
{
closed = 1;
nodes = (
(142,0,l),
(202,0,l),
(202,646,l),
(398,0,l),
(458,0,l),
(458,800,l),
(398,800,l),
(398,158,l),
(202,800,l),
(142,800,l)
);
}
);
width = 600;
},
{
associatedMasterId = m01;
layerId = "9D155D3A-5F85-4C5D-9EEC-2621C8D49670";
name = "26. Mar 24, 13:42";
shapes = (
{
closed = 1;
nodes = (
(209,779,l),
(202,800,l),
(142,800,l),
(142,800,l)
);
},
{
closed = 1;
nodes = (
(458,723,l),
(458,800,l),
(398,800,l),
(398,738,l)
);
},
{
closed = 1;
nodes = (
(393,174,l),
(458,187,l),
(458,615,l),
(398,630,l),
(398,175,l),
(398,175,l),
(393,174,l),
(242,670,l),
(206,678,l),
(192,681,l),
(142,693,l),
(142,132,l),
(202,143,l),
(202,646,l),
(202,646,l),
(348,165,l)
);
},
{
closed = 1;
nodes = (
(142,27,l),
(142,0,l),
(202,0,l),
(202,38,l)
);
},
{
closed = 1;
nodes = (
(377,67,l),
(398,0,l),
(458,0,l),
(458,84,l)
);
}
);
width = 600;
},
{
associatedMasterId = m002;
layerId = "0F738185-2418-4499-B4FB-E16C219349B5";
name = "26. Mar 24, 13:56";
shapes = (
{
closed = 1;
nodes = (
(202,765,l),
(202,800,l),
(142,800,l),
(142,765,l)
);
},
{
closed = 1;
nodes = (
(458,723,l),
(458,800,l),
(398,800,l),
(398,738,l)
);
},
{
closed = 1;
nodes = (
(269,581,l),
(363,273,l),
(317,267,l),
(224,574,l),
(218,593,l)
);
},
{
closed = 1;
nodes = (
(202,581,l),
(202,597,l),
(142,612,l),
(142,232,l),
(202,243,l)
);
},
{
closed = 1;
nodes = (
(142,27,l),
(142,0,l),
(202,0,l),
(202,38,l)
);
},
{
closed = 1;
nodes = (
(377,67,l),
(398,0,l),
(458,0,l),
(458,84,l)
);
},
{
closed = 1;
nodes = (
(399,277,l),
(458,286,l),
(458,536,l),
(399,550,l)
);
}
);
width = 600;
},
{
associatedMasterId = m01;
layerId = "7EA0290C-91D1-49B6-8CC5-C063CCD422D5";
name = "26. Mar 24, 14:12";
shapes = (
{
closed = 1;
nodes = (
(209,779,l),
(202,800,l),
(142,800,l),
(142,800,l)
);
},
{
closed = 1;
nodes = (
(458,723,l),
(458,800,l),
(398,800,l),
(398,738,l)
);
},
{
closed = 1;
nodes = (
(202,646,l),
(348,165,l),
(393,174,l),
(242,670,l),
(202,680,l)
);
},
{
closed = 1;
nodes = (
(202,680,l),
(142,693,l),
(142,132,l),
(202,143,l),
(202,646,l)
);
},
{
closed = 1;
nodes = (
(142,27,l),
(142,0,l),
(202,0,l),
(202,38,l)
);
},
{
closed = 1;
nodes = (
(377,67,l),
(398,0,l),
(458,0,l),
(458,84,l)
);
},
{
closed = 1;
nodes = (
(458,187,l),
(458,615,l),
(398,630,l),
(398,177,l)
);
}
);
width = 600;
}
);
unicode = 78;
}
{
glyphname = O;
kernLeft = O;
kernRight = O;
layers = (
{
layerId = m01;
shapes = (
{
closed = 1;
nodes = (
(462,561,l),
(451,775,o),
(403,810,o),
(300,810,cs),
(210,810,o),
(168,756,o),
(150,641,c),
(205,627,l),
(216,716,o),
(239,761,o),
(300,761,cs),
(369,761,o),
(395,740,o),
(402,576,c)
);
},
{
closed = 1;
nodes = (
(395,186,l),
(387,107,o),
(368,40,o),
(300,40,cs),
(244,40,o),
(230,81,o),
(221,104,c),
(171,82,l),
(193,37,o),
(219,-10,o),
(300,-10,cs),
(403,-10,o),
(444,76,o),
(455,211,c)
);
},
{
closed = 1;
nodes = (
(137,521,l),
(136,468,o),
(135,492,o),
(135,411,cs),
(135,305,o),
(138,264,o),
(145,202,c),
(200,224,l),
(196,279,o),
(195,313,o),
(195,411,cs),
(195,487,o),
(195,458,o),
(196,507,c)
);
},
{
closed = 1;
nodes = (
(404,456,l),
(404,438,o),
(405,423,o),
(405,411,cs),
(405,355,o),
(406,347,o),
(404,306,c),
(464,331,l),
(466,367,o),
(465,367,o),
(465,411,cs),
(465,426,o),
(464,433,o),
(464,441,c)
);
}
);
width = 600;
},
{
layerId = m002;
shapes = (
{
closed = 1;
nodes = (
(457,621,l),
(446,765,o),
(403,810,o),
(300,810,cs),
(210,810,o),
(181,757,o),
(163,701,c),
(217,687,l),
(228,717,o),
(239,761,o),
(300,761,cs),
(369,761,o),
(390,730,o),
(397,636,c)
);
},
{
closed = 1;
nodes = (
(395,146,l),
(387,67,o),
(368,40,o),
(300,40,cs),
(278,40,o),
(259,45,o),
(242,64,c),
(193,42,l),
(206,24,o),
(233,-10,o),
(300,-10,cs),
(403,-10,o),
(444,36,o),
(455,171,c)
);
},
{
closed = 1;
nodes = (
(137,521,l),
(136,468,o),
(135,492,o),
(135,411,cs),
(135,305,o),
(136,314,o),
(140,252,c),
(197,274,l),
(194,329,o),
(195,313,o),
(195,411,cs),
(195,487,o),
(195,458,o),
(196,507,c)
);
},
{
closed = 1;
nodes = (
(404,456,l),
(404,438,o),
(405,420,o),
(405,411,cs),
(405,402,o),
(406,384,o),
(405,356,c),
(465,381,l),
(465,390,o),
(465,404,o),
(465,411,cs),
(465,419,o),
(465,431,o),
(465,441,c)
);
}
);
width = 600;
},
{
associatedMasterId = m002;
layerId = "CBFD6ECE-8C5C-45FF-8DB2-E525F15C8521";
name = "12. Mar 24, 17:17";
shapes = (
{
closed = 1;
nodes = (
(420,-10,o),
(465,97,o),
(465,411,cs),
(465,722,o),
(420,810,o),
(300,810,cs),
(178,810,o),
(135,714,o),
(135,411,cs),
(135,89,o),
(180,-10,o),
(300,-10,cs)
);
},
{
closed = 1;
nodes = (
(215,40,o),
(195,127,o),
(195,411,cs),
(195,677,o),
(215,761,o),
(300,761,cs),
(385,761,o),
(405,683,o),
(405,411,cs),
(405,133,o),
(385,40,o),
(300,40,cs)
);
}
);
visible = 1;
width = 600;
}
);
unicode = 79;
}
{
glyphname = P;
layers = (
{
layerId = m01;
shapes = (
{
closed = 1;
nodes = (
(166,800,l),
(166,0,l),
(226,0,l),
(226,350,l),
(255,350,ls),
(375,350,o),
(480,411,o),
(480,571,cs),
(480,731,o),
(385,800,o),
(265,800,cs)
);
},
{
closed = 1;
nodes = (
(226,750,l),
(265,750,ls),
(370,750,o),
(420,680,o),
(420,570,cs),
(420,460,o),
(360,400,o),
(255,400,cs),
(226,400,l)
);
}
);
width = 600;
},
{
associatedMasterId = m01;
layerId = "72BA07FE-7C07-4576-A48A-63A6EE677067";
name = "8. Aug 23, 19:06";
shapes = (
{
closed = 1;
nodes = (
(350,750,l),
(435,750,o),
(445,672,o),
(445,610,cs),
(445,552,o),
(425,470,o),
(340,470,c),
(340,420,l),
(460,420,o),
(505,517,o),
(505,611,cs),
(505,712,o),
(470,800,o),
(350,800,c)
);
},
{
closed = 1;
nodes = (
(140,0,l),
(200,0,l),
(200,800,l),
(140,800,l)
);
},
{
closed = 1;
nodes = (
(140,750,l),
(350,750,l),
(350,800,l),
(140,800,l)
);
},
{
closed = 1;
nodes = (
(170,420,l),
(340,420,l),
(340,470,l),
(170,470,l)
);
}
);
width = 600;
}
);
unicode = 80;
}
{
glyphname = Q;
layers = (
{
layerId = m01;
shapes = (
{
closed = 1;
nodes = (
(407,-10,o),
(439,97,o),
(439,411,cs),
(439,722,o),
(399,810,o),
(279,810,cs),
(157,810,o),
(126,714,o),
(126,411,cs),
(126,89,o),
(167,-10,o),
(287,-10,cs)
);
},
{
closed = 1;
nodes = (
(201,40,o),
(181,127,o),
(181,411,cs),
(181,677,o),
(197,760,o),
(282,760,cs),
(367,760,o),
(384,683,o),
(384,411,cs),
(384,133,o),
(371,40,o),
(286,40,cs)
);
},
{
closed = 1;
nodes = (
(300,128,l),
(435,-10,l),
(471,26,l),
(335,163,l)
);
}
);
width = 600;
}
);
unicode = 81;
}
{
glyphname = R;
layers = (
{
layerId = m01;
shapes = (
{
closed = 1;
nodes = (
(135,800,l),
(135,0,l),
(195,0,l),
(195,350,l),
(224,350,ls),
(344,350,o),
(449,411,o),
(449,571,cs),
(449,731,o),
(354,800,o),
(234,800,cs)
);
},
{
closed = 1;
nodes = (
(195,750,l),
(234,750,ls),
(339,750,o),
(389,680,o),
(389,570,cs),
(389,460,o),
(329,400,o),
(224,400,cs),
(195,400,l)
);
},
{
closed = 1;
nodes = (
(405,0,l),
(465,28,l),
(339,408,l),
(295,379,l)
);
}
);
width = 600;
}
);
unicode = 82;
}
{
glyphname = S;
layers = (
{
layerId = m01;
shapes = (
{
closed = 1;
nodes = (
(152,113,o),
(180,-10,o),
(300,-10,cs),
(420,-10,o),
(455,114,o),
(455,211,cs),
(455,351,o),
(369,390,o),
(312,433,cs),
(272,463,o),
(210,502,o),
(210,607,cs),
(210,670,o),
(215,760,o),
(300,760,cs),
(385,760,o),
(389,681,o),
(399,610,c),
(454,622,l),
(444,705,o),
(420,810,o),
(300,810,cs),
(180,810,o),
(150,704,o),
(150,607,cs),
(150,467,o),
(243,411,o),
(300,368,cs),
(340,338,o),
(395,316,o),
(395,211,cs),
(395,159,o),
(385,40,o),
(300,40,cs),
(215,40,o),
(207,142,o),
(199,211,c),
(144,199,l)
);
}
);
width = 600;
},
{
associatedMasterId = m01;
layerId = "6ECA9D09-E98A-485F-803C-27B63B4FDAA4";
name = "8. Aug 23, 16:37";
shapes = (
{
closed = 0;
nodes = (
(454,600,l),
(454,685,o),
(420,810,o),
(300,810,cs),
(180,810,o),
(145,672,o),
(145,597,cs),
(145,477,o),
(218,423,o),
(300,400,cs),
(385,376,o),
(454,328,o),
(454,208,cs),
(454,133,o),
(430,-10,o),
(300,-10,c),
(170,-10,o),
(150,123,o),
(150,208,c)
);
}
);
width = 600;
},
{
associatedMasterId = m01;
layerId = "7F75E41E-740C-4DC3-9E1A-D02B95F2195F";
name = "8. Aug 23, 16:49";
shapes = (
{
closed = 1;
nodes = (
(155,123,o),
(180,-10,o),
(300,-10,cs),
(420,-10,o),
(456,124,o),
(456,221,cs),
(456,361,o),
(384,406,o),
(307,431,cs),
(230,456,o),
(199,492,o),
(199,597,cs),
(199,660,o),
(215,765,o),
(300,765,cs),
(385,765,o),
(393,671,o),
(403,600,c),
(453,612,l),
(443,695,o),
(420,810,o),
(300,810,cs),
(180,810,o),
(149,694,o),
(149,597,cs),
(149,457,o),
(216,407,o),
(293,382,cs),
(369,357,o),
(406,326,o),
(406,221,cs),
(406,169,o),
(385,35,o),
(300,35,cs),
(215,35,o),
(205,152,o),
(195,221,c),
(145,209,l)
);
}
);
width = 600;
}
);
unicode = 83;
}
{
glyphname = T;
layers = (
{
layerId = m01;
shapes = (
{
closed = 1;
nodes = (
(325,757,l),
(325,757,l),
(475,757,l),
(475,807,l),
(125,807,l),
(125,757,l),
(265,757,l),
(265,708,l)
);
},
{
closed = 1;
nodes = (
(325,259,l),
(325,628,l),
(265,580,l),
(265,310,l)
);
},
{
closed = 1;
nodes = (
(265,170,l),
(265,0,l),
(325,0,l),
(325,119,l)
);
}
);
width = 600;
},
{
associatedMasterId = m01;
layerId = "EC07BD2B-6890-4F8E-B404-5277D668CFEE";
name = "16. Aug 23, 18:19";
shapes = (
{
closed = 1;
nodes = (
(260,0,l),
(320,0,l),
(320,800,l),
(260,800,l)
);
},
{
closed = 1;
nodes = (
(120,757,l),
(470,757,l),
(470,807,l),
(120,807,l)
);
}
);
width = 600;
},
{
associatedMasterId = m01;
layerId = "FBE4FF9F-82EA-47C7-87F6-E07734E6A51E";
name = "16. Aug 23, 18:20";
shapes = (
{
closed = 1;
nodes = (
(215,0,l),
(275,0,l),
(275,800,l),
(215,800,l)
);
},
{
closed = 1;
nodes = (
(75,757,l),
(425,757,l),
(425,807,l),
(75,807,l)
);
}
);
width = 600;
},
{
associatedMasterId = m01;
layerId = "9BBB9C88-47EB-434F-8D1A-D85CA8A97186";
name = "16. Aug 23, 18:23";
shapes = (
{
closed = 1;
nodes = (
(275,578,l),
(275,800,l),
(215,800,l),
(215,557,l)
);
},
{
closed = 1;
nodes = (
(137,807,l),
(75,807,l),
(75,757,l),
(121,757,l)
);
},
{
closed = 1;
nodes = (
(275,158,l),
(275,479,l),
(215,458,l),
(215,184,l)
);
},
{
closed = 1;
nodes = (
(215,74,l),
(215,0,l),
(275,0,l),
(275,48,l)
);
},
{
closed = 1;
nodes = (
(171,757,l),
(425,757,l),
(425,807,l),
(187,807,l)
);
}
);
width = 600;
},
{
layerId = m002;
shapes = (
{
closed = 1;
nodes = (
(325,757,l),
(325,757,l),
(475,757,l),
(475,807,l),
(125,807,l),
(125,757,l),
(265,757,l),
(265,708,l)
);
},
{
closed = 1;
nodes = (
(325,259,l),
(325,518,l),
(265,470,l),
(265,310,l)
);
},
{
closed = 1;
nodes = (
(265,51,l),
(265,0,l),
(325,0,l),
(325,0,l)
);
}
);
width = 600;
},
{
associatedMasterId = m002;
layerId = "94C84616-5F02-41F5-949D-79BD6331C791";
name = "16. Aug 23, 18:19";
shapes = (
{
closed = 1;
nodes = (
(260,0,l),
(320,0,l),
(320,800,l),
(260,800,l)
);
},
{
closed = 1;
nodes = (
(120,757,l),
(470,757,l),
(470,807,l),
(120,807,l)
);
}
);
width = 600;
},
{
associatedMasterId = m002;
layerId = "FD9BBECC-C692-4C34-97CF-4198928446B7";
name = "16. Aug 23, 18:20";
shapes = (
{
closed = 1;
nodes = (
(215,0,l),
(275,0,l),
(275,800,l),
(215,800,l)
);
},
{
closed = 1;
nodes = (
(75,757,l),
(425,757,l),
(425,807,l),
(75,807,l)
);
}
);
width = 600;
},
{
associatedMasterId = m002;
layerId = "B82BE518-0D09-4A7E-9B83-316690E1321E";
name = "16. Aug 23, 18:23";
shapes = (
{
closed = 1;
nodes = (
(275,578,l),
(275,800,l),
(215,800,l),
(215,557,l)
);
},
{
closed = 1;
nodes = (
(137,807,l),
(75,807,l),
(75,757,l),
(121,757,l)
);
},
{
closed = 1;
nodes = (
(275,158,l),
(275,479,l),
(215,458,l),
(215,184,l)
);
},
{
closed = 1;
nodes = (
(215,74,l),
(215,0,l),
(275,0,l),
(275,48,l)
);
},
{
closed = 1;
nodes = (
(171,757,l),
(425,757,l),
(425,807,l),
(187,807,l)
);
}
);
width = 600;
},
{
associatedMasterId = m002;
layerId = "E9FDBE98-A9D7-44E5-BBDC-1D80F590F2D5";
name = "9. Mar 24, 17:26";
shapes = (
{
closed = 1;
nodes = (
(265,0,l),
(325,0,l),
(325,757,l),
(475,757,l),
(475,807,l),
(125,807,l),
(125,757,l),
(265,757,l)
);
}
);
width = 600;
}
);
unicode = 84;
}
{
glyphname = U;
layers = (
{
layerId = m01;
shapes = (
{
closed = 1;
nodes = (
(401,800,l),
(401,746,o),
(397,546,o),
(397,392,cs),
(397,124,o),
(382,40,o),
(302,40,cs),
(217,40,o),
(197,118,o),
(197,392,cs),
(197,543,o),
(200,747,o),
(200,800,c),
(140,800,l),
(140,736,o),
(137,529,o),
(137,392,cs),
(137,80,o),
(176,-10,o),
(303,-10,cs),
(424,-10,o),
(457,88,o),
(457,392,cs),
(457,534,o),
(461,735,o),
(461,800,c)
);
}
);
width = 600;
}
);
unicode = 85;
}
{
glyphname = V;
layers = (
{
layerId = m01;
shapes = (
{
closed = 1;
nodes = (
(292,82,l),
(159,800,l),
(99,790,l),
(258,0,l),
(323,0,l),
(501,790,l),
(441,800,l)
);
}
);
width = 600;
},
{
associatedMasterId = m01;
layerId = "2AE8915B-CF85-46A0-A513-7C365E5B6658";
name = "8. Aug 23, 16:57";
shapes = (
{
closed = 1;
nodes = (
(272,0,l),
(327,0,l),
(514,800,l),
(466,800,l)
);
},
{
closed = 1;
nodes = (
(104,800,l),
(272,0,l),
(327,0,l),
(152,800,l)
);
}
);
width = 600;
}
);
unicode = 86;
}
{
glyphname = W;
layers = (
{
layerId = m01;
shapes = (
{
closed = 1;
nodes = (
(213,182,l),
(210,182,l),
(160,800,l),
(95,790,l),
(184,0,l),
(226,0,l),
(300,469,l),
(305,469,l),
(369,0,l),
(412,0,l),
(505,790,l),
(440,800,l),
(390,180,l),
(387,180,l),
(325,620,l),
(281,620,l)
);
}
);
width = 600;
},
{
associatedMasterId = m01;
layerId = "A19F257E-3A2F-4FF5-935C-24BCB0032436";
name = "8. Aug 23, 17:51";
shapes = (
{
closed = 1;
nodes = (
(211,82,l),
(108,800,l),
(48,800,l),
(182,0,l),
(237,0,l),
(325,600,l),
(275,600,l)
);
},
{
closed = 1;
nodes = (
(403,81,l),
(325,599,l),
(275,599,l),
(374,0,l),
(429,0,l),
(552,799,l),
(492,799,l)
);
}
);
width = 600;
}
);
unicode = 87;
}
{
color = 1;
glyphname = X;
layers = (
{
layerId = m01;
shapes = (
{
closed = 1;
nodes = (
(379,548,l),
(465,777,l),
(413,800,l),
(307,520,l)
);
},
{
closed = 1;
nodes = (
(151,105,l),
(119,23,l),
(171,0,l),
(205,88,l)
);
},
{
closed = 1;
nodes = (
(399,46,l),
(416,0,l),
(469,23,l),
(469,23,l)
);
},
{
closed = 1;
nodes = (
(250,371,l),
(189,208,l),
(243,191,l),
(294,324,l),
(360,148,l),
(430,125,l),
(324,405,l)
);
},
{
closed = 1;
nodes = (
(175,800,l),
(122,777,l),
(232,488,l),
(285,509,l)
);
}
);
width = 600;
},
{
associatedMasterId = m01;
layerId = "B68D6EF1-0830-43C4-8AD7-684644A33FA9";
name = "8. Aug 23, 19:29";
shapes = (
{
closed = 1;
nodes = (
(115,23,l),
(171,0,l),
(465,777,l),
(409,800,l)
);
},
{
closed = 1;
nodes = (
(122,777,l),
(416,0,l),
(473,23,l),
(179,800,l)
);
}
);
width = 600;
},
{
layerId = m002;
shapes = (
{
closed = 1;
nodes = (
(427,673,l),
(465,777,l),
(413,800,l),
(354,643,l)
);
},
{
closed = 1;
nodes = (
(151,105,l),
(119,23,l),
(171,0,l),
(205,88,l)
);
},
{
closed = 1;
nodes = (
(399,46,l),
(416,0,l),
(469,23,l),
(469,23,l)
);
},
{
closed = 1;
nodes = (
(250,371,l),
(213,270,l),
(267,253,l),
(294,324,l),
(328,236,l),
(398,213,l),
(324,405,l)
);
},
{
closed = 1;
nodes = (
(175,800,l),
(122,777,l),
(196,579,l),
(250,601,l)
);
}
);
width = 600;
},
{
associatedMasterId = m002;
layerId = "F955AA3D-488E-4A83-9DE5-B0C67E29D4BD";
name = "8. Aug 23, 19:29";
shapes = (
{
closed = 1;
nodes = (
(115,23,l),
(171,0,l),
(465,777,l),
(409,800,l)
);
},
{
closed = 1;
nodes = (
(122,777,l),
(416,0,l),
(473,23,l),
(179,800,l)
);
}
);
width = 600;
},
{
associatedMasterId = m01;
layerId = "CFE20A1F-D539-4DE2-9927-CAEFAA9D6B1D";
name = "12. Mar 24, 11:32";
shapes = (
{
closed = 1;
nodes = (
(119,23,l),
(171,0,l),
(465,777,l),
(413,800,l)
);
},
{
closed = 1;
nodes = (
(122,777,l),
(416,0,l),
(469,23,l),
(175,800,l)
);
}
);
width = 600;
},
{
associatedMasterId = m01;
layerId = "3891452F-8950-462A-ABC3-2B030B0D8552";
name = "12. Mar 24, 11:34";
shapes = (
{
closed = 1;
nodes = (
(294,486,l),
(175,800,l),
(122,777,l),
(263,404,l),
(119,23,l),
(171,0,l),
(294,324,l),
(416,0,l),
(469,23,l),
(324,405,l),
(465,777,l),
(413,800,l)
);
}
);
visible = 1;
width = 600;
},
{
associatedMasterId = m01;
layerId = "2DD033F7-2D4D-4BFB-814B-7E6502D39FE7";
name = "26. Mar 24, 13:35";
shapes = (
{
closed = 1;
nodes = (
(379,548,l),
(465,777,l),
(413,800,l),
(294,486,l),
(294,486,l),
(175,800,l),
(122,777,l),
(232,488,l)
);
},
{
closed = 1;
nodes = (
(151,105,l),
(119,23,l),
(171,0,l),
(205,88,l)
);
},
{
closed = 1;
nodes = (
(399,46,l),
(416,0,l),
(469,23,l),
(469,23,l)
);
},
{
closed = 1;
nodes = (
(250,371,l),
(189,208,l),
(243,191,l),
(294,324,l),
(360,148,l),
(430,125,l),
(324,405,l),
(324,405,l)
);
}
);
width = 600;
}
);
unicode = 88;
}
{
glyphname = Y;
layers = (
{
layerId = m01;
shapes = (
{
closed = 1;
nodes = (
(289,427,l),
(146,795,l),
(86,785,l),
(258,345,l),
(318,345,l),
(508,785,l),
(448,795,l)
);
},
{
closed = 1;
nodes = (
(258,0,l),
(318,0,l),
(318,345,l),
(258,345,l)
);
}
);
width = 600;
}
);
unicode = 89;
}
{
glyphname = Z;
layers = (
{
layerId = m01;
shapes = (
{
closed = 1;
nodes = (
(110,50,l),
(171,50,l),
(450,750,l),
(391,750,l)
);
},
{
closed = 1;
nodes = (
(100,750,l),
(450,750,l),
(450,800,l),
(110,800,l)
);
},
{
closed = 1;
nodes = (
(110,0,l),
(450,0,l),
(460,50,l),
(110,50,l)
);
}
);
width = 600;
}
);
unicode = 90;
}
{
glyphname = a;
layers = (
{
layerId = m01;
shapes = (
{
closed = 1;
nodes = (
(469,10,l),
(319,600,l),
(266,600,l),
(131,10,l),
(191,0,l),
(293,509,l),
(409,0,l)
);
},
{
closed = 1;
nodes = (
(210,202,l),
(393,202,l),
(393,252,l),
(210,252,l)
);
}
);
width = 600;
}
);
unicode = 97;
}
{
glyphname = b;
layers = (
{
layerId = m01;
shapes = (
{
closed = 1;
nodes = (
(195,600,l),
(195,50,l),
(155,50,l),
(155,0,l),
(294,0,ls),
(391,0,o),
(455,36,o),
(455,164,cs),
(455,277,o),
(387,314,o),
(352,326,c),
(387,348,o),
(423,378,o),
(423,452,cs),
(423,538,o),
(373,600,o),
(267,600,cs)
);
},
{
closed = 1;
nodes = (
(255,550,l),
(277,550,ls),
(322,550,o),
(363,521,o),
(363,451,cs),
(363,385,o),
(326,349,o),
(269,349,cs),
(255,349,l)
);
},
{
closed = 1;
nodes = (
(255,50,l),
(255,299,l),
(269,299,ls),
(343,299,o),
(395,262,o),
(395,164,cs),
(395,88,o),
(364,50,o),
(292,50,cs)
);
},
{
closed = 1;
nodes = (
(155,550,l),
(207,550,l),
(207,600,l),
(155,600,l)
);
}
);
width = 600;
}
);
note = "Lower bowl is still weird";
unicode = 98;
}
{
glyphname = c;
layers = (
{
layerId = m01;
shapes = (
{
closed = 1;
nodes = (
(372,148,l),
(362,57,o),
(352,40,o),
(303,40,cs),
(247,40,o),
(234,99,o),
(234,314,c),
(234,514,o),
(250,560,o),
(305,560,cs),
(345,560,o),
(362,542,o),
(371,469,c),
(426,481,l),
(411,584,o),
(366,610,o),
(305,610,cs),
(215,610,o),
(174,541,o),
(174,314,cs),
(174,70,o),
(213,-10,o),
(303,-10,cs),
(364,-10,o),
(413,16,o),
(427,136,c)
);
}
);
width = 600;
}
);
unicode = 99;
}
{
glyphname = d;
layers = (
{
layerId = m01;
shapes = (
{
closed = 1;
nodes = (
(191,0,l),
(251,0,l),
(251,600,l),
(191,600,l)
);
},
{
closed = 1;
nodes = (
(167,0,l),
(300,0,l),
(395,0,o),
(443,77,o),
(443,305,cs),
(443,538,o),
(391,600,o),
(296,600,cs),
(251,600,o),
(167,600,o),
(167,600,c),
(167,550,l),
(299,550,l),
(349,550,o),
(383,504,o),
(383,305,cs),
(383,104,o),
(349,50,o),
(299,50,c),
(167,50,l)
);
}
);
width = 600;
}
);
unicode = 100;
}
{
glyphname = e;
layers = (
{
layerId = m01;
shapes = (
{
closed = 1;
nodes = (
(179,0,l),
(239,0,l),
(239,600,l),
(179,600,l)
);
},
{
closed = 1;
nodes = (
(210,550,l),
(412,550,l),
(412,600,l),
(210,600,l)
);
},
{
closed = 1;
nodes = (
(210,0,l),
(420,0,l),
(420,50,l),
(210,50,l)
);
},
{
closed = 1;
nodes = (
(210,285,l),
(382,285,l),
(382,335,l),
(210,335,l)
);
}
);
width = 600;
}
);
unicode = 101;
}
{
glyphname = f;
layers = (
{
layerId = m01;
shapes = (
{
closed = 1;
nodes = (
(176,0,l),
(236,0,l),
(236,600,l),
(176,600,l)
);
},
{
closed = 1;
nodes = (
(182,550,l),
(422,550,l),
(422,600,l),
(182,600,l)
);
},
{
closed = 1;
nodes = (
(204,334,l),
(384,334,l),
(384,386,l),
(204,386,l)
);
}
);
width = 600;
}
);
unicode = 102;
}
{
glyphname = g;
layers = (
{
layerId = m01;
shapes = (
{
closed = 1;
nodes = (
(421,290,l),
(309,290,l),
(309,240,l),
(366,240,l),
(366,97,l),
(359,60,o),
(350,40,o),
(305,40,cs),
(242,40,o),
(235,99,o),
(235,314,cs),
(235,514,o),
(242,560,o),
(305,560,cs),
(353,560,o),
(362,543,o),
(371,470,c),
(426,482,l),
(411,585,o),
(366,610,o),
(305,610,cs),
(215,610,o),
(174,541,o),
(174,314,cs),
(174,70,o),
(215,-10,o),
(305,-10,cs),
(366,-10,o),
(409,26,o),
(421,97,c)
);
}
);
width = 600;
},
{
associatedMasterId = m01;
layerId = "B2D5F78F-2A4C-440D-9BCC-A633FBCF54F4";
name = "30. Aug 23, 14:10";
shapes = (
{
closed = 1;
nodes = (
(312,107,l),
(303,67,o),
(296,50,o),
(251,50,cs),
(188,50,o),
(181,99,o),
(181,304,cs),
(181,504,o),
(188,550,o),
(251,550,cs),
(299,550,o),
(308,533,o),
(317,460,c),
(372,472,l),
(357,575,o),
(312,600,o),
(251,600,cs),
(161,600,o),
(120,531,o),
(120,304,cs),
(120,70,o),
(161,0,o),
(251,0,cs),
(312,0,o),
(355,36,o),
(367,107,c)
);
},
{
closed = 1;
nodes = (
(312,107,l),
(367,107,l),
(363,290,l),
(312,290,l)
);
},
{
closed = 1;
nodes = (
(363,240,l),
(363,290,l),
(255,290,l),
(255,240,l)
);
}
);
width = 600;
}
);
unicode = 103;
}
{
glyphname = h;
layers = (
{
layerId = m01;
shapes = (
{
closed = 1;
nodes = (
(151,0,l),
(211,0,l),
(211,600,l),
(151,600,l)
);
},
{
closed = 1;
nodes = (
(369,0,l),
(429,0,l),
(429,600,l),
(369,600,l)
);
},
{
closed = 1;
nodes = (
(190,281,l),
(389,281,l),
(389,331,l),
(190,331,l)
);
}
);
width = 600;
}
);
unicode = 104;
}
{
glyphname = i;
layers = (
{
layerId = m01;
shapes = (
{
closed = 1;
nodes = (
(188,600,l),
(188,550,l),
(270,550,l),
(270,50,l),
(188,50,l),
(188,0,l),
(412,0,l),
(412,50,l),
(330,50,l),
(330,550,l),
(412,550,l),
(412,600,l)
);
}
);
width = 600;
},
{
associatedMasterId = m01;
layerId = "66E2D0AB-8017-48D2-9577-ED4954DD3375";
name = "30. Aug 23, 13:56";
shapes = (
{
closed = 1;
nodes = (
(220,0,l),
(280,0,l),
(280,600,l),
(220,600,l)
);
},
{
closed = 1;
nodes = (
(138,550,l),
(362,550,l),
(362,600,l),
(138,600,l)
);
},
{
closed = 1;
nodes = (
(138,0,l),
(362,0,l),
(362,50,l),
(138,50,l)
);
}
);
width = 600;
}
);
unicode = 105;
}
{
glyphname = j;
layers = (
{
layerId = m01;
shapes = (
{
closed = 1;
nodes = (
(274,550,l),
(325,550,l),
(327,283,ls),
(328,100,o),
(316,40,o),
(254,40,cs),
(190,40,o),
(185,103,o),
(181,193,c),
(126,181,l),
(134,60,o),
(165,-10,o),
(254,-10,cs),
(341,-10,o),
(388,55,o),
(387,283,cs),
(386,550,l),
(460,550,l),
(460,600,l),
(274,600,l)
);
}
);
width = 600;
},
{
associatedMasterId = m01;
layerId = "DF1AEC02-7601-4392-B100-430844A194FC";
name = "30. Aug 23, 14:26";
shapes = (
{
closed = 1;
nodes = (
(357,283,ls),
(358,110,o),
(346,50,o),
(284,50,cs),
(220,50,o),
(214,113,o),
(210,203,c),
(156,191,l),
(164,70,o),
(195,0,o),
(284,0,cs),
(371,0,o),
(415,65,o),
(417,283,cs),
(416,595,l),
(355,595,l)
);
},
{
closed = 1;
nodes = (
(304,550,l),
(490,550,l),
(490,600,l),
(304,600,l)
);
}
);
width = 600;
}
);
unicode = 106;
}
{
glyphname = k;
layers = (
{
layerId = m01;
shapes = (
{
closed = 1;
nodes = (
(228,558,l),
(229,600,l),
(169,600,l),
(169,581,l)
);
},
{
closed = 1;
nodes = (
(169,104,l),
(169,0,l),
(229,0,l),
(228,124,l)
);
},
{
closed = 1;
nodes = (
(329,154,l),
(403,0,l),
(458,28,l),
(383,172,l)
);
},
{
closed = 1;
nodes = (
(169,487,l),
(169,184,l),
(228,204,l),
(227,304,l),
(256,304,l),
(295,222,l),
(349,240,l),
(301,333,l),
(439,568,l),
(384,596,l),
(254,354,l),
(227,354,l),
(228,464,l)
);
}
);
width = 600;
},
{
layerId = m002;
shapes = (
{
closed = 1;
nodes = (
(228,558,l),
(229,600,l),
(169,600,l),
(169,581,l)
);
},
{
closed = 1;
nodes = (
(169,104,l),
(169,0,l),
(229,0,l),
(228,124,l)
);
},
{
closed = 1;
nodes = (
(329,154,l),
(403,0,l),
(458,28,l),
(383,172,l)
);
},
{
closed = 1;
nodes = (
(169,417,l),
(169,264,l),
(228,284,l),
(227,304,l),
(256,304,l),
(259,296,l),
(313,314,l),
(301,333,l),
(380,469,l),
(342,517,l),
(254,354,l),
(227,354,l),
(228,394,l)
);
}
);
width = 600;
},
{
associatedMasterId = m002;
layerId = "594C8FFE-8799-4D40-92BD-BC776643A679";
name = "1. Apr 24, 16:11";
shapes = (
{
closed = 1;
nodes = (
(169,0,l),
(229,0,l),
(227,304,l),
(256,304,l),
(403,0,l),
(458,28,l),
(301,333,l),
(439,568,l),
(384,596,l),
(254,354,l),
(227,354,l),
(229,600,l),
(169,600,l)
);
}
);
width = 600;
}
);
unicode = 107;
}
{
glyphname = l;
layers = (
{
layerId = m01;
shapes = (
{
closed = 1;
nodes = (
(180,0,l),
(420,0,l),
(420,50,l),
(240,50,l),
(240,599,l),
(180,600,l)
);
}
);
width = 600;
}
);
unicode = 108;
}
{
glyphname = m;
layers = (
{
layerId = m01;
shapes = (
{
closed = 1;
nodes = (
(164,0,l),
(218,0,l),
(218,502,l),
(303,224,l),
(304,224,l),
(382,502,l),
(382,0,l),
(436,0,l),
(436,600,l),
(376,600,l),
(303,361,l),
(300,361,l),
(224,600,l),
(164,600,l)
);
}
);
width = 600;
}
);
unicode = 109;
}
{
glyphname = n;
layers = (
{
layerId = m01;
shapes = (
{
closed = 1;
nodes = (
(166,0,l),
(226,0,l),
(226,600,l),
(166,600,l)
);
},
{
closed = 1;
nodes = (
(374,0,l),
(434,0,l),
(434,600,l),
(374,600,l)
);
},
{
closed = 1;
nodes = (
(226,600,l),
(201,504,l),
(374,0,l),
(414,32,l)
);
}
);
width = 600;
}
);
unicode = 110;
}
{
glyphname = o;
layers = (
{
layerId = m01;
shapes = (
{
closed = 1;
nodes = (
(386,-10,o),
(430,63,o),
(430,301,cs),
(430,544,o),
(390,610,o),
(300,610,cs),
(208,610,o),
(170,538,o),
(170,301,cs),
(170,57,o),
(206,-10,o),
(296,-10,cs)
);
},
{
closed = 1;
nodes = (
(241,40,o),
(230,85,o),
(230,301,cs),
(230,511,o),
(245,560,o),
(300,560,cs),
(355,560,o),
(370,515,o),
(370,301,cs),
(370,89,o),
(351,40,o),
(296,40,cs)
);
}
);
width = 600;
}
);
unicode = 111;
}
{
glyphname = p;
layers = (
{
layerId = m01;
shapes = (
{
closed = 1;
nodes = (
(213,600,l),
(213,0,l),
(273,0,l),
(273,262,l),
(295,262,ls),
(385,262,o),
(467,309,o),
(467,429,cs),
(467,549,o),
(389,600,o),
(299,600,cs)
);
},
{
closed = 1;
nodes = (
(273,550,l),
(302,550,ls),
(364,550,o),
(407,511,o),
(407,429,cs),
(407,346,o),
(362,312,o),
(295,312,cs),
(273,312,l)
);
}
);
width = 600;
}
);
unicode = 112;
}
{
glyphname = q;
layers = (
{
layerId = m01;
shapes = (
{
closed = 1;
nodes = (
);
},
{
closed = 1;
nodes = (
(294,92,l),
(393,-10,l),
(427,28,l),
(327,128,l)
);
},
{
closed = 1;
nodes = (
(390,-10,o),
(428,63,o),
(428,301,cs),
(428,544,o),
(394,610,o),
(304,610,cs),
(212,610,o),
(179,538,o),
(179,301,cs),
(179,57,o),
(210,-10,o),
(300,-10,cs)
);
},
{
closed = 1;
nodes = (
(245,40,o),
(239,85,o),
(239,301,cs),
(239,511,o),
(249,560,o),
(304,560,cs),
(359,560,o),
(368,515,o),
(368,301,cs),
(368,89,o),
(354,40,o),
(300,40,cs)
);
}
);
width = 600;
}
);
unicode = 113;
}
{
glyphname = r;
layers = (
{
layerId = m01;
shapes = (
{
closed = 1;
nodes = (
);
},
{
closed = 1;
nodes = (
(398,520,l),
(383,554,o),
(338,600,o),
(250,600,cs),
(164,600,l),
(164,449,l),
(224,468,l),
(224,550,l),
(253,550,ls),
(332,550,o),
(341,509,o),
(347,501,c)
);
},
{
closed = 1;
nodes = (
(377,205,l),
(348,288,l),
(390,313,o),
(418,358,o),
(418,429,cs),
(418,438,l),
(358,419,l),
(355,343,o),
(321,312,o),
(246,312,cs),
(224,312,l),
(224,378,l),
(164,358.994,l),
(164,241,l),
(224,230,l),
(224,262,l),
(246,262,ls),
(264,262,o),
(283,264,o),
(300,268,c),
(315,216,l)
);
},
{
closed = 1;
nodes = (
(164,161,l),
(164,0,l),
(224,0,l),
(224,150,l)
);
},
{
closed = 1;
nodes = (
(341,132,l),
(377,0,l),
(437,28,l),
(404,121,l)
);
}
);
width = 600;
},
{
layerId = m002;
shapes = (
{
closed = 1;
nodes = (
(398,520,l),
(383,554,o),
(338,600,o),
(250,600,cs),
(164,600,l),
(164,449,l),
(224,468,l),
(224,550,l),
(253,550,ls),
(332,550,o),
(341,509,o),
(347,501,c)
);
},
{
closed = 1;
nodes = (
(377,205,l),
(348,288,l),
(390,313,o),
(406,349,o),
(410,373,cs),
(410,373,l),
(341,354,l),
(332,326,o),
(291,312,o),
(246,312,cs),
(224,312,l),
(224,312,l),
(164,293,l),
(164,241,l),
(224,230,l),
(224,262,l),
(246,262,ls),
(264,262,o),
(283,264,o),
(300,268,c),
(315,216,l)
);
},
{
closed = 1;
nodes = (
(164,91,l),
(164,0,l),
(224,0,l),
(224,80,l)
);
},
{
closed = 1;
nodes = (
(361,60,l),
(377,0,l),
(437,28,l),
(430,49,l)
);
}
);
width = 600;
},
{
associatedMasterId = m002;
layerId = "8CFA6934-999B-4228-B94B-32ECB71E7D22";
name = "1. Apr 24, 15:04";
shapes = (
{
closed = 1;
nodes = (
(164,600,l),
(164,0,l),
(224,0,l),
(224,262,l),
(246,262,ls),
(336,262,o),
(418,309,o),
(418,429,cs),
(418,549,o),
(340,600,o),
(250,600,cs)
);
},
{
closed = 1;
nodes = (
(224,550,l),
(253,550,ls),
(332,550,o),
(358,511,o),
(358,429,cs),
(358,346,o),
(324,312,o),
(246,312,cs),
(224,312,l)
);
},
{
closed = 1;
nodes = (
(377,0,l),
(437,28,l),
(339,314,l),
(295,285,l)
);
}
);
width = 600;
}
);
unicode = 114;
}
{
glyphname = s;
layers = (
{
layerId = m01;
shapes = (
{
closed = 1;
nodes = (
(301,352,l),
(267,377,o),
(242,401,o),
(242,457,cs),
(242,505,o),
(238,560,o),
(301,560,cs),
(364,560,o),
(360,512,o),
(368,459,c),
(423,471,l),
(415,533,o),
(391,610,o),
(301,610,cs),
(211,610,o),
(182,530,o),
(182,457,cs),
(182,386,o),
(219,350,o),
(244,326,c)
);
},
{
closed = 1;
nodes = (
(299,280,l),
(329,258,o),
(364,237,o),
(364,155,cs),
(364,117,o),
(364,40,o),
(301,40,cs),
(238,40,o),
(238,106,o),
(232,158,c),
(177,145,l),
(183,81,o),
(211,-10,o),
(301,-10,cs),
(391,-10,o),
(423,83,o),
(423,155,cs),
(423,250,o),
(373,288,o),
(354,308,c)
);
}
);
width = 600;
},
{
layerId = m002;
shapes = (
{
closed = 1;
nodes = (
(269,381,l),
(247,401,o),
(242,431,o),
(242,457,cs),
(242,505,o),
(238,560,o),
(301,560,cs),
(331,560,o),
(343,550,o),
(351,537,c),
(390,568,l),
(379,580,o),
(358,610,o),
(301,610,cs),
(211,610,o),
(182,530,o),
(182,457,cs),
(182,416,o),
(196,380,o),
(216,356,c)
);
},
{
closed = 1;
nodes = (
(331,253,l),
(356,230,o),
(364,197,o),
(364,155,cs),
(364,117,o),
(364,40,o),
(301,40,cs),
(275,40,o),
(257,54,o),
(251,66,c),
(203,53,l),
(211,29,o),
(247,-10,o),
(301,-10,cs),
(391,-10,o),
(423,83,o),
(423,155,cs),
(423,210,o),
(403,259,o),
(381,279,c)
);
}
);
width = 600;
},
{
associatedMasterId = m002;
layerId = "531D1F50-37ED-4A8D-B8F5-187965F6D1F2";
name = "1. Apr 24, 14:38";
shapes = (
{
closed = 1;
nodes = (
(183,81,o),
(211,-10,o),
(301,-10,cs),
(391,-10,o),
(423,83,o),
(423,155,cs),
(423,261,o),
(355,310,o),
(312,343,cs),
(282,365,o),
(242,391,o),
(242,457,cs),
(242,505,o),
(238,560,o),
(301,560,cs),
(364,560,o),
(360,512,o),
(368,459,c),
(423,471,l),
(415,533,o),
(391,610,o),
(301,610,cs),
(211,610,o),
(182,530,o),
(182,457,cs),
(182,364,o),
(256,313,o),
(299,280,cs),
(329,258,o),
(364,237,o),
(364,155,cs),
(364,117,o),
(364,40,o),
(301,40,cs),
(238,40,o),
(238,106,o),
(232,158,c),
(177,145,l)
);
}
);
width = 600;
}
);
unicode = 115;
}
{
glyphname = t;
layers = (
{
layerId = m01;
shapes = (
{
closed = 1;
nodes = (
(170,550,l),
(270,550,l),
(270,0,l),
(330,0,l),
(330,550,l),
(430,550,l),
(430,600,l),
(170,600,l)
);
}
);
width = 600;
},
{
associatedMasterId = m01;
layerId = "EB2BC2EF-75DE-4931-858F-01DB05078159";
name = "30. Aug 23, 13:58";
shapes = (
{
closed = 1;
nodes = (
(267,0,l),
(327,0,l),
(327,595,l),
(267,595,l)
);
},
{
closed = 1;
nodes = (
(170,550,l),
(430,550,l),
(430,600,l),
(170,600,l)
);
}
);
width = 600;
}
);
unicode = 116;
}
{
glyphname = u;
layers = (
{
layerId = m01;
shapes = (
{
closed = 1;
nodes = (
(369,600,l),
(369,560,o),
(371,415,o),
(371,300,cs),
(371,89,o),
(355,40,o),
(300,40,cs),
(245,40,o),
(230,89,o),
(230,300,cs),
(230,413,o),
(234,561,o),
(234,600,c),
(176,600,l),
(176,552,o),
(173,403,o),
(173,300,cs),
(173,63,o),
(195,-10,o),
(300,-10,cs),
(405,-10,o),
(428,63,o),
(428,300,cs),
(428,406,o),
(426,552,o),
(426,600,c)
);
}
);
width = 600;
}
);
unicode = 117;
}
{
glyphname = v;
layers = (
{
layerId = m01;
shapes = (
{
closed = 1;
nodes = (
(294,72,l),
(204,601,l),
(144,591,l),
(260,0,l),
(325,0,l),
(456,591,l),
(396,601,l)
);
}
);
width = 600;
}
);
unicode = 118;
}
{
glyphname = w;
layers = (
{
layerId = m01;
shapes = (
{
closed = 1;
nodes = (
(230,136,l),
(227,136,l),
(195,601,l),
(130,591,l),
(199,0,l),
(241,0,l),
(298,351,l),
(301,351,l),
(352,0,l),
(394,0,l),
(466,591,l),
(401,601,l),
(373,135,l),
(370,135,l),
(322,465,l),
(278,465,l)
);
}
);
width = 600;
}
);
unicode = 119;
}
{
glyphname = x;
layers = (
{
layerId = m01;
shapes = (
{
closed = 1;
nodes = (
(300,364,l),
(200,606,l),
(148,583,l),
(270,303,l),
(145,23,l),
(197,0,l),
(300,243,l),
(403,0,l),
(455,23,l),
(329,303,l),
(452,583,l),
(400,606,l)
);
}
);
width = 600;
},
{
associatedMasterId = m01;
layerId = "4EAD342E-45BC-427F-A5D0-BA453A0F36AD";
name = "30. Aug 23, 16:08";
shapes = (
{
closed = 1;
nodes = (
(149,17,l),
(193,0,l),
(449,583,l),
(403,600,l)
);
},
{
closed = 1;
nodes = (
(151,583,l),
(406,0,l),
(451,17,l),
(197,600,l)
);
}
);
width = 600;
}
);
unicode = 120;
}
{
glyphname = y;
layers = (
{
layerId = m01;
shapes = (
{
closed = 1;
nodes = (
(246,449,l),
(191,601,l),
(131,591,l),
(184,458,l)
);
},
{
closed = 1;
nodes = (
(260,126,l),
(260,0,l),
(320,0,l),
(320,146,l)
);
},
{
closed = 1;
nodes = (
(217,369,l),
(260,261,l),
(260,216,l),
(320,236,l),
(320,261,l),
(464,591,l),
(404,601,l),
(291,315,l),
(276,362,l)
);
}
);
width = 600;
},
{
layerId = m002;
shapes = (
{
closed = 1;
nodes = (
(225,506,l),
(191,601,l),
(131,591,l),
(162,515,l)
);
},
{
closed = 1;
nodes = (
(260,46,l),
(260,0,l),
(320,0,l),
(320,66,l)
);
},
{
closed = 1;
nodes = (
(217,369,l),
(260,261,l),
(260,216,l),
(320,236,l),
(320,261,l),
(421,494,l),
(354,477,l),
(291,315,l),
(276,362,l)
);
}
);
width = 600;
},
{
associatedMasterId = m002;
layerId = "5AA9D0CA-5400-4B18-AFDC-6CE2EC76524E";
name = "1. Apr 24, 15:24";
shapes = (
{
closed = 1;
nodes = (
(291,315,l),
(191,601,l),
(131,591,l),
(260,261,l),
(320,261,l),
(464,591,l),
(404,601,l)
);
},
{
closed = 1;
nodes = (
(260,0,l),
(320,0,l),
(320,261,l),
(260,261,l)
);
}
);
width = 600;
},
{
associatedMasterId = m01;
layerId = "04A20E6D-FC06-4F16-9C4A-0C24F71A7E3E";
name = "1. Apr 24, 16:03";
shapes = (
{
closed = 1;
nodes = (
(291,315,l),
(191,601,l),
(131,591,l),
(260,261,l),
(260,0,l),
(320,0,l),
(320,261,l),
(464,591,l),
(404,601,l)
);
}
);
width = 600;
}
);
unicode = 121;
}
{
glyphname = z;
layers = (
{
layerId = m01;
shapes = (
{
closed = 1;
nodes = (
(153,50,l),
(154,0,l),
(406,0,l),
(414,50,l),
(213,50,l),
(407,550,l),
(406,600,l),
(154,600,l),
(146,550,l),
(348,550,l)
);
}
);
width = 600;
},
{
associatedMasterId = m01;
layerId = "7768AD07-05DF-4D58-B76C-131B80DB4127";
name = "16. Aug 23, 16:28";
shapes = (
{
closed = 1;
nodes = (
(133,43,l),
(186,43,l),
(427,657,l),
(376,657,l)
);
},
{
closed = 1;
nodes = (
(124,657,l),
(427,657,l),
(427,700,l),
(133,700,l)
);
},
{
closed = 1;
nodes = (
(133,0,l),
(427,0,l),
(436,43,l),
(133,43,l)
);
}
);
width = 600;
}
);
unicode = 122;
}
